<svg width="49" height="48" viewBox="0 0 49 48" fill="none" xmlns="http://www.w3.org/2000/svg">
<g id="logo-85" clip-path="url(#clip0_316_1520)">
<path id="Vector" fill-rule="evenodd" clip-rule="evenodd" d="M12.0479 0C18.6752 0 24.0479 5.37258 24.0479 12V0H36.0479C42.6752 0 48.0479 5.37258 48.0479 12C48.0479 18.6274 42.6752 24 36.0479 24C42.6752 24 48.0479 29.3726 48.0479 36C48.0479 39.2908 46.7232 42.2722 44.5781 44.4401L44.5332 44.4853L44.4933 44.5249C42.3249 46.6732 39.3414 48 36.0479 48C32.7768 48 29.8113 46.6912 27.6467 44.5686C27.6186 44.541 27.5905 44.5132 27.5625 44.4853C27.5363 44.459 27.5101 44.4326 27.4841 44.4061C25.3587 42.2411 24.0479 39.2736 24.0479 36C24.0479 42.6274 18.6752 48 12.0479 48C5.42043 48 0.0478516 42.6274 0.0478516 36V24H12.0479C5.42043 24 0.0478516 18.6274 0.0478516 12C0.0478516 5.37258 5.42043 0 12.0479 0ZM21.6479 12C21.6479 17.302 17.3498 21.6 12.0479 21.6V2.4C17.3498 2.4 21.6479 6.69806 21.6479 12ZM45.6479 36C45.6479 30.698 41.3498 26.4 36.0479 26.4C30.7459 26.4 26.4479 30.698 26.4479 36H45.6479ZM2.44785 26.4V36C2.44785 41.302 6.74592 45.6 12.0479 45.6C17.3498 45.6 21.6479 41.302 21.6479 36V26.4H2.44785ZM26.4479 21.6V2.4H36.0479C41.3498 2.4 45.6479 6.69806 45.6479 12C45.6479 17.302 41.3498 21.6 36.0479 21.6H26.4479Z" fill="white"/>
</g>
<defs>
<clipPath id="clip0_316_1520">
<rect width="48" height="48" fill="white" transform="translate(0.0478516)"/>
</clipPath>
</defs>
</svg>
