<svg width="49" height="48" viewBox="0 0 49 48" fill="none" xmlns="http://www.w3.org/2000/svg">
<g clip-path="url(#clip0_316_1516)">
<path fill-rule="evenodd" clip-rule="evenodd" d="M17.0288 0.604248C14.3211 0.604248 11.7244 1.65362 9.80986 3.52151L0.571289 12.5347V16.6603C0.571289 19.5751 1.85462 22.1974 3.9001 24.0189C1.85462 25.8403 0.571289 28.4626 0.571289 31.3774V35.503L9.80986 44.5163C11.7244 46.3842 14.3211 47.4335 17.0288 47.4335C20.0164 47.4335 22.7043 46.1815 24.5713 44.1859C26.4382 46.1815 29.1261 47.4335 32.1138 47.4335C34.8214 47.4335 37.4181 46.3842 39.3327 44.5163L48.5713 35.503V31.3774C48.5713 28.4626 47.288 25.8403 45.2425 24.0189C47.288 22.1974 48.5713 19.5751 48.5713 16.6603V12.5347L39.3327 3.52151C37.4181 1.65362 34.8214 0.604248 32.1138 0.604248C29.1261 0.604248 26.4382 1.85627 24.5713 3.85187C22.7043 1.85627 20.0164 0.604248 17.0288 0.604248ZM31.4819 24.0189C31.3668 23.9164 31.2539 23.8112 31.1432 23.7032L24.5713 17.2916L17.9994 23.7032C17.8887 23.8112 17.7758 23.9164 17.6607 24.0189C17.7758 24.1213 17.8887 24.2266 17.9994 24.3345L24.5713 30.7461L31.1432 24.3345C31.2539 24.2266 31.3668 24.1213 31.4819 24.0189ZM27.2379 35.503V37.4734C27.2379 40.1005 29.421 42.2303 32.1138 42.2303C33.4069 42.2303 34.6471 41.7291 35.5615 40.837L43.238 33.3477V31.3774C43.238 28.7503 41.055 26.6205 38.3622 26.6205C37.069 26.6205 35.8288 27.1217 34.9145 28.0138L27.2379 35.503ZM21.9046 35.503L14.2281 28.0138C13.3137 27.1217 12.0736 26.6205 10.7804 26.6205C8.0876 26.6205 5.90462 28.7503 5.90462 31.3774V33.3477L13.5811 40.837C14.4955 41.7291 15.7357 42.2303 17.0288 42.2303C19.7216 42.2303 21.9046 40.1005 21.9046 37.4734V35.503ZM21.9046 10.5644V12.5347L14.2281 20.024C13.3137 20.9161 12.0736 21.4173 10.7804 21.4173C8.0876 21.4173 5.90462 19.2875 5.90462 16.6603V14.69L13.5811 7.20076C14.4955 6.30867 15.7357 5.8075 17.0288 5.8075C19.7216 5.8075 21.9046 7.93723 21.9046 10.5644ZM34.9145 20.024L27.2379 12.5347V10.5644C27.2379 7.93723 29.421 5.8075 32.1138 5.8075C33.4069 5.8075 34.6471 6.30867 35.5615 7.20076L43.238 14.69V16.6603C43.238 19.2875 41.055 21.4173 38.3622 21.4173C37.069 21.4173 35.8288 20.9161 34.9145 20.024Z" fill="white"/>
</g>
<defs>
<clipPath id="clip0_316_1516">
<rect width="48" height="48" fill="white" transform="translate(0.571289)"/>
</clipPath>
</defs>
</svg>
