<svg width="127" height="48" viewBox="0 0 127 48" fill="none" xmlns="http://www.w3.org/2000/svg">
<g id="logo-77">
<path id="Vector" d="M58.2871 42.2855H61.5684V29.9083H58.2871V42.2855ZM58.2871 27.9781H61.5684V25.0347H58.2871V27.9781Z" fill="white"/>
<path id="Vector_2" d="M63.6826 46.3391H66.9639V40.8864H67.0123C67.7119 41.948 68.8459 42.6477 70.583 42.6477C73.7678 42.6477 75.9392 40.1144 75.9392 36.1092C75.9392 32.2488 73.8401 29.5708 70.5589 29.5708C68.87 29.5708 67.7119 30.367 66.9157 31.4526H66.8433V29.9086H63.6826V46.3391ZM69.8834 39.9213C67.9291 39.9213 66.8915 38.4496 66.8915 36.2057C66.8915 33.9861 67.7119 32.2247 69.7627 32.2247C71.7893 32.2247 72.6097 33.8654 72.6097 36.2057C72.6097 38.5461 71.5481 39.9213 69.8834 39.9213Z" fill="white"/>
<path id="Vector_3" d="M82.484 42.6477C85.5722 42.6477 87.6953 41.1518 87.6953 38.6667C87.6953 35.7714 85.4033 35.1924 83.3284 34.7582C81.567 34.3962 79.9264 34.2996 79.9264 33.2381C79.9264 32.3454 80.7708 31.8628 82.0497 31.8628C83.449 31.8628 84.2934 32.3454 84.4382 33.6724H87.4059C87.1646 31.1873 85.3551 29.5708 82.0979 29.5708C79.275 29.5708 77.0553 30.8495 77.0553 33.5276C77.0553 36.2298 79.2268 36.8331 81.4464 37.2674C83.1353 37.605 84.7036 37.7258 84.7036 38.908C84.7036 39.7766 83.8833 40.3314 82.4356 40.3314C80.9639 40.3314 79.9505 39.7042 79.7334 38.2806H76.6934C76.8864 40.9106 78.889 42.6477 82.484 42.6477Z" fill="white"/>
<path id="Vector_4" d="M100.153 42.2858V29.9087H96.8721V37.0503C96.8721 38.6909 95.9312 39.849 94.3871 39.849C92.9877 39.849 92.3363 39.0528 92.3363 37.6051V29.9087H89.0791V38.1601C89.0791 40.8623 90.6233 42.6237 93.3738 42.6237C95.1109 42.6237 96.0759 41.9722 96.9205 40.8382H96.9929V42.2858H100.153Z" fill="white"/>
<path id="Vector_5" d="M102.276 42.2858H105.558V35.0958C105.558 33.4552 106.45 32.3937 107.777 32.3937C108.984 32.3937 109.683 33.1174 109.683 34.5168V42.2858H112.965V35.0958C112.965 33.4552 113.809 32.3937 115.184 32.3937C116.391 32.3937 117.09 33.1174 117.09 34.5168V42.2858H120.372V33.962C120.372 31.2597 118.9 29.5708 116.294 29.5708C114.726 29.5708 113.423 30.3911 112.579 31.7422H112.53C111.927 30.4394 110.673 29.5708 109.104 29.5708C107.391 29.5708 106.185 30.4394 105.509 31.5734H105.437V29.9086H102.276V42.2858Z" fill="white"/>
<path id="Vector_6" d="M58.335 21.0863H61.6162V3.83545H58.335V21.0863Z" fill="white"/>
<path id="Vector_7" d="M69.6389 21.4485C73.4752 21.4485 76.105 18.6014 76.105 14.91C76.105 11.2186 73.4752 8.37158 69.6389 8.37158C65.8028 8.37158 63.1729 11.2186 63.1729 14.91C63.1729 18.6014 65.8028 21.4485 69.6389 21.4485ZM69.6389 18.9392C67.6123 18.9392 66.5025 17.3227 66.5025 14.91C66.5025 12.4973 67.6123 10.8567 69.6389 10.8567C71.6415 10.8567 72.7755 12.4973 72.7755 14.91C72.7755 17.3227 71.6415 18.9392 69.6389 18.9392Z" fill="white"/>
<path id="Vector_8" d="M83.0833 25.3086C84.917 25.3086 86.5094 24.8743 87.5468 23.9092C88.4636 23.0647 89.0186 21.8825 89.0186 20.1454V8.70911H85.8579V10.012H85.8097C85.0617 8.97451 83.9277 8.37134 82.3835 8.37134C79.2471 8.37134 77.0273 10.7358 77.0273 14.4272C77.0273 18.1669 79.7296 20.3383 82.4801 20.3383C84.0484 20.3383 84.9893 19.7111 85.7132 18.8908H85.7855V20.2418C85.7855 21.9307 84.8929 22.8234 83.035 22.8234C81.515 22.8234 80.8154 22.2203 80.5499 21.4482H77.2928C77.6306 23.8609 79.7055 25.3086 83.0833 25.3086ZM83.035 17.7085C81.3461 17.7085 80.2363 16.478 80.2363 14.379C80.2363 12.3041 81.3461 11.0012 83.0109 11.0012C84.9893 11.0012 85.9544 12.5453 85.9544 14.3549C85.9544 16.1885 85.1099 17.7085 83.035 17.7085Z" fill="white"/>
<path id="Vector_9" d="M96.9944 21.4482C100.831 21.4482 103.46 18.6012 103.46 14.9098C103.46 11.2183 100.831 8.37134 96.9944 8.37134C93.1582 8.37134 90.5283 11.2183 90.5283 14.9098C90.5283 18.6012 93.1582 21.4482 96.9944 21.4482ZM96.9944 18.939C94.9677 18.939 93.8578 17.3225 93.8578 14.9098C93.8578 12.497 94.9677 10.8564 96.9944 10.8564C98.997 10.8564 100.131 12.497 100.131 14.9098C100.131 17.3225 98.997 18.939 96.9944 18.939Z" fill="white"/>
<path id="Vector_10" d="M106.337 16.3575H120.523V13.5347H106.337V16.3575Z" fill="white"/>
<path id="Vector_11" d="M121.563 27.8061C121.563 27.2509 122.013 26.8008 122.569 26.8008H124.579C125.135 26.8008 125.585 27.2509 125.585 27.8061C125.585 28.3613 125.135 28.8114 124.579 28.8114H122.569C122.013 28.8114 121.563 28.3613 121.563 27.8061Z" fill="white"/>
<path id="Vector_12" fill-rule="evenodd" clip-rule="evenodd" d="M25.1494 0C38.4042 0 49.1494 10.7452 49.1494 24C49.1494 37.2548 38.4042 48 25.1494 48C11.8946 48 1.14941 37.2548 1.14941 24C1.14941 10.7452 11.8946 0 25.1494 0ZM24.2819 1.79591C21.544 2.18123 18.9369 4.3813 16.9131 8.06088C16.326 9.1282 15.7964 10.3074 15.3347 11.5805C18.0866 10.889 21.1095 10.4813 24.2819 10.4182V1.79591ZM13.3064 12.157C13.8803 10.3555 14.5826 8.69808 15.3929 7.22478C16.3961 5.40071 17.5868 3.82554 18.9282 2.61572C11.6336 4.73428 5.88368 10.4841 3.76514 17.7788C4.97495 16.4374 6.55013 15.2467 8.3742 14.2435C9.8475 13.4332 11.5049 12.7309 13.3064 12.157ZM12.7299 14.1853C12.0384 16.9372 11.6307 19.9601 11.5677 23.1325H2.94531C3.33065 20.3945 5.53071 17.7874 9.2103 15.7637C10.2776 15.1766 11.4568 14.647 12.7299 14.1853ZM13.303 23.1325C13.3746 19.6704 13.873 16.4201 14.6976 13.5482C17.5695 12.7236 20.8199 12.2251 24.2819 12.1535V15.901C22.9904 19.2074 20.3561 21.8414 17.0495 23.1325H13.303ZM11.5677 24.8675H2.94531C3.33065 27.6055 5.53071 30.2125 9.2103 32.2363C10.2776 32.8234 11.4568 33.353 12.7299 33.8147C12.0384 31.0628 11.6307 28.0399 11.5677 24.8675ZM14.6976 34.4518C13.873 31.5799 13.3746 28.3296 13.303 24.8675H17.0495C20.3561 26.1586 22.9905 28.7926 24.2819 32.099V35.8465C20.8199 35.7749 17.5695 35.2764 14.6976 34.4518ZM13.3064 35.843C11.5049 35.2691 9.8475 34.5668 8.3742 33.7565C6.55013 32.7533 4.97495 31.5626 3.76514 30.2212C5.88368 37.5158 11.6336 43.2658 18.9282 45.3842C17.5868 44.1744 16.3961 42.5993 15.3929 40.7752C14.5826 39.3019 13.8803 37.6445 13.3064 35.843ZM24.2819 46.2041C21.544 45.8188 18.9369 43.6187 16.9131 39.9391C16.326 38.8718 15.7964 37.6926 15.3347 36.4195C18.0866 37.111 21.1095 37.5187 24.2819 37.5817V46.2041ZM31.3706 45.3842C32.712 44.1744 33.9027 42.5993 34.906 40.7752C35.7162 39.3019 36.4185 37.6445 36.9924 35.843C38.7939 35.2691 40.4513 34.5668 41.9247 33.7565C43.7487 32.7533 45.3239 31.5626 46.5336 30.2212C44.4152 37.5158 38.6652 43.2658 31.3706 45.3842ZM34.9641 36.4195C34.5024 37.6926 33.9728 38.8718 33.3857 39.9391C31.362 43.6187 28.7549 45.8188 26.0169 46.2041V37.5817C29.1893 37.5187 32.2122 37.111 34.9641 36.4195ZM37.5689 33.8147C38.842 33.353 40.0212 32.8234 41.0885 32.2363C44.7681 30.2125 46.9682 27.6055 47.3535 24.8675H38.7311C38.6681 28.0399 38.2604 31.0628 37.5689 33.8147ZM36.9959 24.8675C36.9243 28.3296 36.4258 31.5799 35.6012 34.4518C32.7293 35.2764 29.479 35.7749 26.0169 35.8465V32.1018C27.308 28.7941 29.9428 26.1589 33.2504 24.8675H36.9959ZM38.7311 23.1325H47.3535C46.9682 20.3945 44.7681 17.7874 41.0885 15.7637C40.0212 15.1766 38.842 14.647 37.5689 14.1853C38.2604 16.9372 38.6681 19.9601 38.7311 23.1325ZM35.6012 13.5482C36.4258 16.4201 36.9243 19.6704 36.9959 23.1325H33.2504C29.9428 21.8411 27.308 19.2059 26.0169 15.8982V12.1535C29.479 12.2251 32.7293 12.7236 35.6012 13.5482ZM36.9924 12.157C38.7939 12.7309 40.4513 13.4332 41.9247 14.2435C43.7487 15.2467 45.3239 16.4374 46.5336 17.7788C44.4152 10.4841 38.6652 4.73428 31.3706 2.61572C32.712 3.82554 33.9027 5.40071 34.906 7.22478C35.7162 8.69808 36.4185 10.3555 36.9924 12.157ZM26.0169 1.79591C28.7549 2.18123 31.362 4.3813 33.3857 8.06088C33.9728 9.12821 34.5024 10.3074 34.9641 11.5805C32.2122 10.889 29.1893 10.4813 26.0169 10.4182V1.79591Z" fill="white"/>
</g>
</svg>
