<svg width="128" height="48" viewBox="0 0 128 48" fill="none" xmlns="http://www.w3.org/2000/svg">
<g id="logo-32">
<path id="Vector" d="M26.5371 24.3407C26.5371 22.5884 27.5833 21.3677 29.1822 21.3677C30.7812 21.3677 31.8273 22.5884 31.8273 24.3407C31.8273 26.0734 30.7812 27.3138 29.1822 27.3138C27.5833 27.3138 26.5371 26.0734 26.5371 24.3407Z" fill="white"/>
<path id="Vector_2" d="M40.0591 21.2891C38.5391 21.2891 37.5127 22.4704 37.5127 24.0849C37.5127 25.7191 38.5588 26.9398 40.0591 26.9398C41.7172 26.9398 42.8226 25.6994 42.8226 24.0849C42.8226 22.4901 41.7172 21.2891 40.0591 21.2891Z" fill="white"/>
<path id="Vector_3" d="M48.8711 24.3407C48.8711 22.5884 49.9173 21.3677 51.5162 21.3677C53.1151 21.3677 54.1613 22.5884 54.1613 24.3407C54.1613 26.0734 53.1151 27.3138 51.5162 27.3138C49.9173 27.3138 48.8711 26.0734 48.8711 24.3407Z" fill="white"/>
<path id="Vector_4" d="M64.957 24.3603C64.957 22.6079 66.023 21.3872 67.7008 21.3872C69.3787 21.3872 70.3853 22.6276 70.3853 24.3603C70.3853 26.0929 69.3787 27.3136 67.7008 27.3136C66.023 27.3136 64.957 26.1126 64.957 24.3603Z" fill="white"/>
<path id="Vector_5" fill-rule="evenodd" clip-rule="evenodd" d="M63.9514 44.9393C97.4908 44.9393 124.68 35.4231 124.68 23.6842C124.68 11.9454 97.4908 2.4292 63.9514 2.4292C30.4119 2.4292 3.22266 11.9454 3.22266 23.6842C3.22266 35.4231 30.4119 44.9393 63.9514 44.9393ZM22.6349 29.2237V14.5749H20.2267V29.2237H22.6349ZM24.1089 24.3407C24.1089 27.3335 26.1223 29.46 29.182 29.46C32.2416 29.46 34.255 27.3335 34.255 24.3407C34.255 21.348 32.2416 19.2216 29.182 19.2216C26.1223 19.2216 24.1089 21.348 24.1089 24.3407ZM39.6445 29.0268C36.9007 29.0268 35.0649 26.9791 35.0649 24.1439C35.0649 21.289 36.9402 19.1822 39.7234 19.1822C41.1644 19.1822 42.3883 19.7926 42.9804 20.8165L43.1186 19.4972H45.2505V28.7315C45.2505 31.9408 43.2371 34.0081 40.0788 34.0081C37.3942 34.0081 35.44 32.3543 35.1242 29.8143H37.5522C37.6903 31.0942 38.7168 31.8227 40.2169 31.8227C41.8948 31.8227 42.9015 30.7594 42.9015 29.1646V27.5108C42.2896 28.4558 41.0658 29.0268 39.6445 29.0268ZM46.4423 24.3407C46.4423 27.3335 48.4557 29.46 51.5154 29.46C54.575 29.46 56.5884 27.3335 56.5884 24.3407C56.5884 21.348 54.575 19.2216 51.5154 19.2216C48.4557 19.2216 46.4423 21.348 46.4423 24.3407ZM60.6356 16.0714C60.6356 16.8786 59.9842 17.5087 59.1946 17.5087C58.3853 17.5087 57.7734 16.8786 57.7734 16.0714C57.7734 15.2837 58.3853 14.6537 59.1946 14.6537C59.9842 14.6537 60.6356 15.2837 60.6356 16.0714ZM60.3987 19.4972V29.2237H57.9906V19.4972H60.3987ZM62.5085 33.7325H64.8576V27.8848C65.4695 28.889 66.792 29.4796 68.2528 29.4796C71.1347 29.4796 72.852 27.2745 72.8125 24.2423C72.7533 21.1905 70.9965 19.2019 68.233 19.2019C66.7526 19.2019 65.4103 19.8517 64.8181 20.9739L64.6799 19.4972H62.5085V33.7325ZM77.3324 29.4796C75.0032 29.4796 73.503 28.2392 73.4241 26.3097H75.6151C75.6151 27.1563 76.227 27.6485 77.293 27.6485C78.1813 27.6485 78.9116 27.2942 78.9116 26.5263C78.9116 25.9749 78.5168 25.6796 77.8851 25.5024L76.1876 25.0693C74.3123 24.577 73.582 23.5335 73.582 22.2734C73.582 20.4226 75.1414 19.2019 77.2337 19.2019C79.3458 19.2019 80.7868 20.4226 80.8658 22.3522H78.6748C78.6748 21.5055 78.0825 20.9936 77.1746 20.9936C76.306 20.9936 75.773 21.4661 75.773 22.1356C75.773 22.7657 76.2665 23.0216 76.9969 23.2185L78.7143 23.6319C80.3132 24.0257 81.1816 24.9708 81.1816 26.3688C81.1816 28.2589 79.6222 29.4796 77.3324 29.4796ZM86.1771 29.4796C87.4992 29.4796 88.7623 28.8692 89.335 27.9636L89.4933 29.2237H91.7434V19.4972H89.335V24.5967C89.335 26.3491 88.6638 27.3335 87.0849 27.3335C85.8613 27.3335 85.0124 26.7428 85.0124 24.7346V19.4972H82.6039V25.5812C82.6039 27.9045 83.8673 29.4796 86.1771 29.4796ZM96.2773 23.6319V29.2237H93.8689V19.4972H96.0794L96.1981 20.5999C96.7708 19.7335 97.7973 19.2019 98.9417 19.2019C100.56 19.2019 101.626 19.9107 102.159 21.0527C102.633 19.9107 103.798 19.2019 105.279 19.2019C107.647 19.2019 108.89 20.6196 108.89 22.8641V29.2237H106.561V23.4154C106.561 22.0372 105.812 21.3087 104.647 21.3087C103.502 21.3087 102.594 22.0569 102.594 23.6516V29.2237H100.244V23.4154C100.244 22.0372 99.495 21.3087 98.3497 21.3087C97.2053 21.3087 96.2773 22.0569 96.2773 23.6319Z" fill="white"/>
</g>
</svg>
