<svg width="18" height="18" viewBox="0 0 18 18" fill="none" xmlns="http://www.w3.org/2000/svg">
<path d="M13.1276 0H4.87245C2.18573 0 0 2.18573 0 4.87245V13.1277C0 15.8143 2.18573 18 4.87245 18H13.1277C15.8143 18 18 15.8143 18 13.1277V4.87245C18 2.18573 15.8143 0 13.1276 0ZM9 13.9217C6.2861 13.9217 4.07827 11.7139 4.07827 9C4.07827 6.2861 6.2861 4.07827 9 4.07827C11.7139 4.07827 13.9217 6.2861 13.9217 9C13.9217 11.7139 11.7139 13.9217 9 13.9217ZM14.0394 5.239C13.2374 5.239 12.5851 4.58666 12.5851 3.78464C12.5851 2.98262 13.2374 2.33023 14.0394 2.33023C14.8415 2.33023 15.4939 2.98266 15.4939 3.78464C15.4939 4.58663 14.8414 5.239 14.0394 5.239Z" fill="white"/>
<path d="M8.99931 5.13273C6.86741 5.13273 5.13281 6.86723 5.13281 8.99923C5.13281 11.1311 6.86741 12.8657 8.99931 12.8657C11.1313 12.8657 12.8658 11.1311 12.8658 8.99923C12.8658 6.86723 11.1313 5.13273 8.99931 5.13273ZM14.0387 3.38477C13.8187 3.38477 13.6396 3.5639 13.6396 3.78387C13.6396 4.00388 13.8187 4.18296 14.0387 4.18296C14.2588 4.18296 14.4379 4.00402 14.4379 3.78387C14.4379 3.56375 14.2588 3.38477 14.0387 3.38477Z" fill="white"/>
</svg>
