<svg width="19" height="15" viewBox="0 0 19 15" fill="none" xmlns="http://www.w3.org/2000/svg">
<path d="M6.09175 14.7508C12.8845 14.7508 16.6004 9.1224 16.6004 4.25003C16.6004 4.09253 16.6004 3.93278 16.5936 3.77528C17.3171 3.25158 17.9414 2.6032 18.4375 1.86053C17.7617 2.15849 17.0456 2.35486 16.3124 2.44328C17.0847 1.98162 17.6632 1.25524 17.9402 0.399155C17.2146 0.829044 16.4204 1.13082 15.5924 1.29128C15.0357 0.698431 14.2991 0.305687 13.4966 0.173882C12.6941 0.0420767 11.8706 0.178566 11.1535 0.562209C10.4364 0.945852 9.86591 1.55524 9.53026 2.29597C9.1946 3.03671 9.11258 3.86745 9.29688 4.65953C7.82846 4.5859 6.39192 4.20443 5.08042 3.53987C3.76893 2.8753 2.61177 1.94248 1.684 0.801905C1.21301 1.61537 1.06927 2.57761 1.28198 3.4932C1.49468 4.4088 2.04789 5.20913 2.82925 5.73165C2.24373 5.71176 1.67109 5.55453 1.1575 5.27265V5.32328C1.15851 6.17545 1.45372 7.00113 1.99323 7.66076C2.53275 8.32039 3.28347 8.77351 4.1185 8.94353C3.80155 9.03085 3.47413 9.07437 3.14538 9.07291C2.91361 9.07361 2.6823 9.05213 2.45462 9.00878C2.69063 9.74234 3.15018 10.3837 3.7689 10.8431C4.38762 11.3024 5.13453 11.5567 5.905 11.5704C4.59612 12.5984 2.97933 13.156 1.315 13.1533C1.02174 13.1545 0.728676 13.1376 0.4375 13.1027C2.1267 14.1796 4.08846 14.7514 6.09175 14.7508V14.7508Z" fill="white"/>
</svg>
