<svg width="17" height="13" viewBox="0 0 17 13" fill="none" xmlns="http://www.w3.org/2000/svg">
<path d="M8.55472 0H8.64929C9.52272 0.00347006 13.9483 0.0381709 15.1416 0.38749C15.5023 0.4941 15.831 0.701903 16.0949 0.990133C16.3587 1.27836 16.5484 1.63692 16.6451 2.02998C16.7524 2.46953 16.8279 3.05134 16.8789 3.65166L16.8895 3.77196L16.9129 4.07269L16.9214 4.19299C16.9904 5.2502 16.9989 6.24032 17 6.45662V6.54338C16.9989 6.76777 16.9894 7.82498 16.9129 8.92615L16.9044 9.0476L16.8948 9.1679C16.8417 9.82952 16.763 10.4865 16.6451 10.97C16.5487 11.3632 16.3591 11.722 16.0952 12.0102C15.8313 12.2985 15.5025 12.5062 15.1416 12.6125C13.909 12.9734 9.22414 12.9988 8.57491 13H8.42403C8.09569 13 6.73773 12.9931 5.31389 12.9399L5.13326 12.9329L5.04081 12.9283L4.85912 12.9202L4.67742 12.9121C3.49797 12.8554 2.37484 12.764 1.85737 12.6114C1.49661 12.5052 1.16783 12.2976 0.903951 12.0096C0.640073 11.7215 0.450365 11.363 0.353835 10.97C0.23589 10.4877 0.15726 9.82952 0.104132 9.1679L0.095631 9.04645L0.0871304 8.92615C0.0346902 8.14238 0.00563146 7.35696 0 6.57114L0 6.42886C0.00212513 6.18018 0.0106257 5.32076 0.0680043 4.37227L0.0754422 4.25314L0.0786299 4.19299L0.0871304 4.07269L0.110507 3.77196L0.121133 3.65166C0.172136 3.05134 0.247578 2.46837 0.354897 2.02998C0.451265 1.63677 0.6409 1.27804 0.904789 0.989756C1.16868 0.701477 1.49755 0.493781 1.85843 0.38749C2.3759 0.237121 3.49903 0.144586 4.67848 0.0867514L4.85912 0.0786546L5.04188 0.0717147L5.13326 0.0682447L5.31496 0.0601479C6.32621 0.0247239 7.33788 0.00505803 8.34965 0.00115674H8.55472V0ZM6.80043 3.71296V9.28588L11.2175 6.50058L6.80043 3.71296Z" fill="white"/>
</svg>
