<svg width="6" height="12" viewBox="0 0 6 12" fill="none" xmlns="http://www.w3.org/2000/svg">
<path d="M5.83438 5.85312C5.83476 6.04783 5.76694 6.23653 5.64271 6.38646L1.47604 11.3865C1.3346 11.5566 1.13134 11.6637 0.91098 11.684C0.690625 11.7043 0.471224 11.6362 0.301043 11.4948C0.130863 11.3533 0.0238427 11.1501 0.00352627 10.9297C-0.0167902 10.7094 0.051261 10.49 0.19271 10.3198L3.92604 5.85312L0.326044 1.38646C0.256822 1.30122 0.205129 1.20314 0.173936 1.09785C0.142743 0.99257 0.132665 0.882162 0.144281 0.772971C0.155897 0.663781 0.188977 0.557962 0.241622 0.461598C0.294267 0.365234 0.365438 0.280224 0.451043 0.211456C0.536728 0.135139 0.63725 0.0773399 0.746311 0.0416793C0.855373 0.00601876 0.970623 -0.00673358 1.08484 0.00421897C1.19906 0.0151715 1.30979 0.0495931 1.41009 0.105329C1.51038 0.161065 1.59809 0.236915 1.66771 0.328123L5.69271 5.32812C5.79731 5.48236 5.84719 5.66721 5.83438 5.85312Z" fill="#888888"/>
</svg>
