<svg width="20" height="20" viewBox="0 0 20 20" fill="none" xmlns="http://www.w3.org/2000/svg">
<path d="M19.9998 1V8C19.9998 8.26522 19.8944 8.51957 19.7069 8.70711C19.5194 8.89465 19.265 9 18.9998 9C18.7346 9 18.4802 8.89465 18.2927 8.70711C18.1051 8.51957 17.9998 8.26522 17.9998 8V3.414L1.70679 19.707C1.61413 19.8002 1.50397 19.8741 1.38264 19.9246C1.26131 19.9751 1.13119 20.001 0.999786 20.001C0.868378 20.001 0.738266 19.9751 0.616933 19.9246C0.4956 19.8741 0.38544 19.8002 0.292786 19.707C0.105315 19.5195 0 19.2652 0 19C0 18.7348 0.105315 18.4805 0.292786 18.293L16.5858 2H11.9998C11.7346 2 11.4802 1.89464 11.2927 1.70711C11.1051 1.51957 10.9998 1.26522 10.9998 1C10.9998 0.734784 11.1051 0.48043 11.2927 0.292893C11.4802 0.105357 11.7346 0 11.9998 0H18.9998C19.265 0 19.5194 0.105357 19.7069 0.292893C19.8944 0.48043 19.9998 0.734784 19.9998 1Z" fill="white"/>
</svg>
