<svg width="30" height="32" viewBox="0 0 30 32" fill="none" xmlns="http://www.w3.org/2000/svg">
<path fill-rule="evenodd" clip-rule="evenodd" d="M14.5242 2.23256C12.6746 2.23256 11.1753 3.73188 11.1753 5.5814V5.96819C12.0044 5.95347 12.9142 5.95348 13.9126 5.95349H15.1357C16.1341 5.95348 17.0439 5.95347 17.873 5.96819V5.5814C17.873 3.73188 16.3737 2.23256 14.5242 2.23256ZM20.1056 6.06947V5.5814C20.1056 2.49888 17.6067 0 14.5242 0C11.4416 0 8.94276 2.49888 8.94276 5.5814V6.06947C8.73033 6.08776 8.52505 6.10893 8.32668 6.13344C6.82347 6.31917 5.58422 6.70933 4.5315 7.583C3.47879 8.45668 2.86693 9.60281 2.40736 11.046C1.96198 12.4447 1.62485 14.2428 1.20105 16.5032L1.17027 16.6674C0.572252 19.8567 0.100967 22.3701 0.0144787 24.3516C-0.0741706 26.3826 0.22799 28.0647 1.3737 29.4452C2.51941 30.8257 4.11706 31.4327 6.12963 31.7199C8.09311 32 10.6503 32 13.8951 32H15.1531C18.398 32 20.9552 32 22.9187 31.7199C24.9313 31.4327 26.5289 30.8257 27.6746 29.4452C28.8203 28.0647 29.1225 26.3826 29.0338 24.3516C28.9473 22.3701 28.4761 19.8567 27.878 16.6674L27.8473 16.5032C27.4235 14.2429 27.0863 12.4447 26.641 11.046C26.1814 9.60281 25.5695 8.45668 24.5168 7.583C23.4641 6.70933 22.2248 6.31917 20.7216 6.13344C20.5233 6.10893 20.318 6.08776 20.1056 6.06947ZM8.60044 8.34915C7.32708 8.50648 6.55801 8.80243 5.95729 9.30098C5.35658 9.79953 4.92397 10.5009 4.53467 11.7234C4.13599 12.9754 3.82232 14.6376 3.38159 16.9881C2.76284 20.2881 2.32364 22.6451 2.24491 24.4489C2.16753 26.2219 2.4519 27.2486 3.09168 28.0195C3.73145 28.7903 4.68809 29.259 6.44499 29.5097C8.23239 29.7647 10.63 29.7674 13.9875 29.7674H15.0609C18.4183 29.7674 20.8159 29.7647 22.6033 29.5097C24.3602 29.259 25.3169 28.7903 25.9566 28.0194C26.5964 27.2486 26.8808 26.2219 26.8034 24.4489C26.7247 22.6451 26.2855 20.2881 25.6667 16.9881C25.226 14.6376 24.9123 12.9754 24.5136 11.7234C24.1243 10.5009 23.6917 9.79953 23.091 9.30098C22.4903 8.80243 21.7212 8.50648 20.4479 8.34915C19.1438 8.18803 17.4524 8.18605 15.0608 8.18605H13.9875C11.596 8.18605 9.90447 8.18803 8.60044 8.34915Z" fill="white"/>
</svg>
