<svg width="24" height="23" viewBox="0 0 24 23" fill="none" xmlns="http://www.w3.org/2000/svg">
<path d="M23 18.5H20.337C19.904 17.059 18.58 16 17 16C15.42 16 14.097 17.059 13.663 18.5H0.999984C0.447984 18.5 0 18.948 0 19.5C0 20.052 0.447984 20.5 0.999984 20.5H13.663C14.096 21.941 15.42 23 17 23C18.5799 23 19.903 21.941 20.337 20.5H23C23.553 20.5 24 20.052 24 19.5C24 18.948 23.553 18.5 23 18.5ZM17 21C16.173 21 15.5 20.327 15.5 19.5C15.5 18.673 16.173 18 17 18C17.827 18 18.5 18.673 18.5 19.5C18.5 20.327 17.827 21 17 21ZM23 2.49998H20.337C19.903 1.059 18.58 0 17 0C15.42 0 14.097 1.059 13.663 2.49998H0.999984C0.447984 2.49998 0 2.94797 0 3.49997C0 4.05197 0.447984 4.49995 0.999984 4.49995H13.663C14.097 5.94098 15.42 6.99998 17 6.99998C18.58 6.99998 19.903 5.94098 20.337 4.5H23C23.553 4.5 24 4.05202 24 3.50002C24 2.94802 23.553 2.49998 23 2.49998ZM17 4.99997C16.173 4.99997 15.5 4.32698 15.5 3.49997C15.5 2.67295 16.173 1.99997 17 1.99997C17.827 1.99997 18.5 2.67295 18.5 3.49997C18.5 4.32698 17.827 4.99997 17 4.99997ZM23 10.5H10.337C9.903 9.05902 8.58 8.00002 7.00003 8.00002C5.42006 8.00002 4.09702 9.05902 3.66305 10.5H0.999984C0.447984 10.5 0 10.948 0 11.5C0 12.052 0.447984 12.5 0.999984 12.5H3.663C4.09702 13.941 5.42002 15 6.99998 15C8.57995 15 9.903 13.941 10.337 12.5H23C23.553 12.5 24 12.052 24 11.5C24 10.948 23.553 10.5 23 10.5ZM6.99998 13C6.17297 13 5.49998 12.327 5.49998 11.5C5.49998 10.673 6.17297 9.99998 6.99998 9.99998C7.827 9.99998 8.49998 10.673 8.49998 11.5C8.49998 12.327 7.827 13 6.99998 13Z" fill="white"/>
</svg>
