<svg width="16" height="18" viewBox="0 0 16 18" fill="none" xmlns="http://www.w3.org/2000/svg">
<path d="M10.1583 6.62543L9.87 14.1254M5.88 14.1254L5.59167 6.62543M13.8983 3.95043C14.1833 3.99377 14.4667 4.0396 14.75 4.08877M13.8983 3.95043L13.0083 15.5196C12.972 15.9906 12.7592 16.4306 12.4125 16.7515C12.0658 17.0724 11.6108 17.2506 11.1383 17.2504H4.61167C4.13925 17.2506 3.68419 17.0724 3.33748 16.7515C2.99078 16.4306 2.77799 15.9906 2.74167 15.5196L1.85167 3.95043M13.8983 3.95043C12.9366 3.80503 11.9698 3.69468 11 3.6196M1.85167 3.95043C1.56667 3.99293 1.28333 4.03877 1 4.08793M1.85167 3.95043C2.81344 3.80503 3.7802 3.69468 4.75 3.6196M11 3.6196V2.85627C11 1.87293 10.2417 1.05293 9.25833 1.0221C8.33635 0.992633 7.41365 0.992633 6.49167 1.0221C5.50833 1.05293 4.75 1.87377 4.75 2.85627V3.6196M11 3.6196C8.91977 3.45883 6.83023 3.45883 4.75 3.6196" stroke="white" stroke-width="1.5" stroke-linecap="round" stroke-linejoin="round"/>
</svg>
