<svg width="21" height="20" viewBox="0 0 21 20" fill="none" xmlns="http://www.w3.org/2000/svg">
<g id="facebook-3-2 1" clip-path="url(#clip0_545_4811)">
<path id="Vector" d="M10.75 20.0001C16.2729 20.0001 20.75 15.5229 20.75 10.0001C20.75 4.47721 16.2729 6.10352e-05 10.75 6.10352e-05C5.22716 6.10352e-05 0.75 4.47721 0.75 10.0001C0.75 15.5229 5.22716 20.0001 10.75 20.0001Z" fill="#3C5A9A"/>
<path id="Vector_2" d="M14.0012 3.06946H11.7859C10.4713 3.06946 9.0091 3.62236 9.0091 5.52793C9.01552 6.1919 9.0091 6.82779 9.0091 7.54345H7.48828V9.96352H9.05616V16.9305H11.9372V9.91754H13.8388L14.0109 7.53666H11.8876C11.8876 7.53666 11.8923 6.47754 11.8876 6.16997C11.8876 5.41693 12.6711 5.46005 12.7183 5.46005C13.0911 5.46005 13.8161 5.46114 14.0023 5.46005V3.06946H14.0012Z" fill="white"/>
</g>
<defs>
<clipPath id="clip0_545_4811">
<rect width="20" height="20" fill="white" transform="translate(0.75)"/>
</clipPath>
</defs>
</svg>
