<svg width="22" height="20" viewBox="0 0 22 20" fill="none" xmlns="http://www.w3.org/2000/svg">
<path d="M18 1H4C2.58579 1 1.87868 1 1.43934 1.4122C1 1.8244 1 2.48782 1 3.81466V4.50448C1 5.54232 1 6.06124 1.2596 6.49142C1.5192 6.9216 1.99347 7.18858 2.94202 7.72255L5.85504 9.36238C6.49146 9.72064 6.80967 9.89977 7.03751 10.0976C7.51199 10.5095 7.80408 10.9935 7.93644 11.5872C8 11.8722 8 12.2058 8 12.8729L8 15.5424C8 16.452 8 16.9067 8.25192 17.2613C8.50385 17.6158 8.95128 17.7907 9.84615 18.1406C11.7248 18.875 12.6641 19.2422 13.3321 18.8244C14 18.4066 14 17.4519 14 15.5424V12.8729C14 12.2058 14 11.8722 14.0636 11.5872C14.1959 10.9935 14.488 10.5095 14.9625 10.0976C15.1903 9.89977 15.5085 9.72064 16.145 9.36238L19.058 7.72255C20.0065 7.18858 20.4808 6.9216 20.7404 6.49142C21 6.06124 21 5.54232 21 4.50448V3.81466C21 2.48782 21 1.8244 20.5607 1.4122C20.1213 1 19.4142 1 18 1Z" stroke="white" stroke-width="1.5"/>
</svg>
