<svg width="21" height="20" viewBox="0 0 21 20" fill="none" xmlns="http://www.w3.org/2000/svg">
<g id="google 2" clip-path="url(#clip0_545_4801)">
<g id="Group">
<g id="super g">
<path id="Shape" d="M10.7518 3.89225C12.1847 3.87006 13.5703 4.40735 14.6181 5.39137L17.4401 2.61379C15.6296 0.906157 13.2328 -0.0302164 10.7518 0.000743992C8.89806 0.000312853 7.08074 0.518937 5.50308 1.49862C3.92542 2.4783 2.64962 3.88041 1.81836 5.54815L5.05194 8.07507C5.44733 6.86499 6.21012 5.81036 7.23276 5.05991C8.25539 4.30946 9.48627 3.90104 10.7518 3.89225Z" fill="#EA4335"/>
<path id="Shape_2" d="M20.3498 10.2896C20.3616 9.59769 20.2905 8.90687 20.1382 8.23206H10.75V11.9677H16.2614C16.1569 12.6227 15.9218 13.2496 15.5703 13.8108C15.2189 14.3719 14.7583 14.8557 14.2163 15.2331L17.372 17.6932C18.3554 16.7375 19.1289 15.5848 19.6423 14.3095C20.1557 13.0343 20.3977 11.6648 20.3527 10.2896H20.3498Z" fill="#4285F4"/>
<path id="Shape_3" d="M5.06177 12.0566C4.84314 11.4158 4.73042 10.7433 4.72813 10.0658C4.73211 9.38943 4.84079 8.71779 5.05023 8.07507L1.81665 5.54816C1.11532 6.94966 0.75 8.49707 0.75 10.0663C0.75 11.6356 1.11532 13.183 1.81665 14.5845L5.06177 12.0566Z" fill="#6ABCFE"/>
<path id="Shape_4" d="M10.75 20.1309C13.1858 20.2002 15.5555 19.3278 17.372 17.693L14.2163 15.2329C13.1931 15.9233 11.9814 16.2752 10.75 16.2394C9.48558 16.2318 8.25559 15.8237 7.23455 15.0729C6.21352 14.3221 5.45329 13.2668 5.06171 12.0566L1.82812 14.5845C2.65714 16.2515 3.93085 17.6533 5.50661 18.6328C7.08237 19.6124 8.89796 20.1312 10.75 20.1309Z" fill="#34A853"/>
</g>
</g>
</g>
<defs>
<clipPath id="clip0_545_4801">
<rect width="20" height="20" fill="white" transform="translate(0.75)"/>
</clipPath>
</defs>
</svg>
