<svg width="22" height="19" viewBox="0 0 22 19" fill="none" xmlns="http://www.w3.org/2000/svg">
<path d="M7.96173 16.626L8.42605 16.037L7.96173 16.626ZM11 3.21572L10.4596 3.73582C10.601 3.88272 10.7961 3.96572 11 3.96572C11.2039 3.96572 11.399 3.88272 11.5404 3.73582L11 3.21572ZM14.0383 16.626L14.5026 17.215L14.0383 16.626ZM8.42605 16.037C6.91039 14.8422 5.25307 13.6753 3.93829 12.1949C2.64922 10.7433 1.75 9.04959 1.75 6.85219H0.25C0.25 9.51772 1.3605 11.5511 2.81672 13.1909C4.24722 14.8017 6.07077 16.0903 7.49742 17.215L8.42605 16.037ZM1.75 6.85219C1.75 4.70132 2.96537 2.89761 4.62436 2.13928C6.23607 1.40256 8.40166 1.59766 10.4596 3.73582L11.5404 2.69562C9.0985 0.158609 6.26409 -0.259526 4.00076 0.775048C1.78471 1.78801 0.25 4.14012 0.25 6.85219H1.75ZM7.49742 17.215C8.00965 17.6188 8.55954 18.0494 9.11682 18.375C9.67386 18.7005 10.3096 18.9651 11 18.9651V17.4651C10.6904 17.4651 10.3261 17.3443 9.87361 17.0799C9.42132 16.8156 8.95208 16.4517 8.42605 16.037L7.49742 17.215ZM14.5026 17.215C15.9292 16.0903 17.7528 14.8017 19.1833 13.1909C20.6395 11.5511 21.75 9.51772 21.75 6.85219H20.25C20.25 9.04959 19.3508 10.7433 18.0617 12.1949C16.7469 13.6753 15.0896 14.8422 13.574 16.037L14.5026 17.215ZM21.75 6.85219C21.75 4.14012 20.2153 1.78801 17.9992 0.775048C15.7359 -0.259526 12.9015 0.158609 10.4596 2.69562L11.5404 3.73582C13.5983 1.59766 15.7639 1.40256 17.3756 2.13928C19.0346 2.89761 20.25 4.70132 20.25 6.85219H21.75ZM13.574 16.037C13.0479 16.4517 12.5787 16.8156 12.1264 17.0799C11.6739 17.3443 11.3096 17.4651 11 17.4651V18.9651C11.6904 18.9651 12.3261 18.7005 12.8832 18.375C13.4405 18.0494 13.9903 17.6188 14.5026 17.215L13.574 16.037Z" fill="black" fill-opacity="0.7"/>
</svg>
