<svg width="36" height="31" viewBox="0 0 36 31" fill="none" xmlns="http://www.w3.org/2000/svg">
<path d="M12.6029 27.0433L13.0672 26.4543L12.6029 27.0433ZM17.6667 4.69287L17.1263 5.21297C17.2677 5.35986 17.4628 5.44287 17.6667 5.44287C17.8705 5.44287 18.0656 5.35986 18.207 5.21297L17.6667 4.69287ZM22.7304 27.0433L23.1948 27.6323L22.7304 27.0433ZM13.0672 26.4543C10.5708 24.4863 7.75317 22.501 5.52329 19.9901C3.31912 17.5081 1.75 14.572 1.75 10.7536H0.25C0.25 15.0402 2.0304 18.316 4.40172 20.9861C6.74732 23.6274 9.73115 25.7345 12.1386 27.6323L13.0672 26.4543ZM1.75 10.7536C1.75 6.9818 3.88206 3.79282 6.83273 2.44406C9.73612 1.11691 13.5684 1.51642 17.1263 5.21297L18.207 4.17277C14.2652 0.0773666 9.76415 -0.54518 6.20914 1.07982C2.70141 2.68322 0.25 6.4206 0.25 10.7536H1.75ZM12.1386 27.6323C12.9969 28.3089 13.8865 29.0044 14.7803 29.5266C15.6739 30.0488 16.6429 30.4418 17.6667 30.4418V28.9418C17.0237 28.9418 16.3261 28.6926 15.5371 28.2316C14.7483 27.7706 13.9393 27.1418 13.0672 26.4543L12.1386 27.6323ZM23.1948 27.6323C25.6022 25.7345 28.586 23.6274 30.9316 20.9861C33.3029 18.316 35.0833 15.0402 35.0833 10.7536H33.5833C33.5833 14.572 32.0142 17.5081 29.81 19.9901C27.5802 22.501 24.7626 24.4863 22.2661 26.4543L23.1948 27.6323ZM35.0833 10.7536C35.0833 6.4206 32.6319 2.68322 29.1242 1.07982C25.5692 -0.54518 21.0681 0.0773666 17.1263 4.17277L18.207 5.21297C21.765 1.51642 25.5972 1.11691 28.5006 2.44406C31.4513 3.79282 33.5833 6.9818 33.5833 10.7536H35.0833ZM22.2661 26.4543C21.394 27.1418 20.5851 27.7706 19.7962 28.2316C19.0072 28.6926 18.3096 28.9418 17.6667 28.9418V30.4418C18.6904 30.4418 19.6595 30.0488 20.553 29.5266C21.4468 29.0044 22.3364 28.3089 23.1948 27.6323L22.2661 26.4543Z" fill="white"/>
</svg>
