<svg width="10" height="14" viewBox="0 0 10 14" fill="none" xmlns="http://www.w3.org/2000/svg">
<path d="M5.00012 0.00188966C3.67477 0.00438703 2.40442 0.531986 1.46726 1.46915C0.530096 2.40631 0.00249736 3.67666 0 5.00201C0 6.96728 1.18484 9.12153 2.33188 10.8411C3.47892 12.5608 4.62785 13.8344 4.62785 13.8344C4.6748 13.8863 4.73209 13.9278 4.79605 13.9562C4.86001 13.9845 4.9292 13.9992 4.99917 13.9992C5.06914 13.9992 5.13834 13.9845 5.2023 13.9562C5.26625 13.9278 5.32355 13.8863 5.3705 13.8344C5.3705 13.8344 6.51943 12.5608 7.66647 10.8411C8.81351 9.12153 9.99835 6.96728 9.99835 5.00201C9.99685 3.67651 9.46989 2.40567 8.53297 1.46804C7.59606 0.530419 6.32562 0.00438976 5.00012 0.00188966ZM5.00012 0.999646C7.21672 0.999646 8.99681 2.78729 8.99681 5.00201C8.99681 6.53832 7.93859 8.6321 6.83501 10.2875C5.91662 11.6632 5.28357 12.3586 5.00201 12.6817C4.71855 12.3586 4.08362 11.6632 3.16523 10.2875C2.06354 8.6321 0.999646 6.53832 0.999646 5.00201C0.999646 2.78729 2.7854 0.999646 5.00012 0.999646ZM5.00012 3.00272C3.90221 3.00272 3.00083 3.9041 3.00083 5.00201C3.00083 6.09992 3.90221 7.0013 5.00012 7.0013C6.09992 7.0013 7.0013 6.09992 7.0013 5.00201C7.0013 3.9041 6.09992 3.00272 5.00012 3.00272ZM5.00012 4.00047C5.55947 4.00047 6.00165 4.44455 6.00165 5.00201C6.00165 5.55947 5.55947 6.00354 5.00012 6.00354C4.8684 6.00455 4.7378 5.97932 4.61594 5.92932C4.49408 5.87933 4.38339 5.80556 4.29034 5.71233C4.19729 5.61911 4.12373 5.50828 4.07397 5.38632C4.0242 5.26437 3.99921 5.13372 4.00047 5.00201C4.00047 4.44455 4.44077 4.00047 5.00012 4.00047Z" fill="#888888"/>
</svg>
