<svg width="24" height="24" viewBox="0 0 24 24" fill="none" xmlns="http://www.w3.org/2000/svg">
<path d="M14.415 16.2802C14.1166 16.2802 13.8305 16.3987 13.6195 16.6097C13.4085 16.8206 13.29 17.1068 13.29 17.4052V20.1459C13.2896 20.5672 13.1222 20.9711 12.8243 21.269C12.5265 21.5669 12.1227 21.7345 11.7014 21.735H3.83859C3.41734 21.7345 3.0135 21.5669 2.71567 21.269C2.41785 20.9711 2.25037 20.5672 2.25 20.1459V3.83906C2.25037 3.41781 2.41785 3.01392 2.71567 2.716C3.0135 2.41809 3.41734 2.2505 3.83859 2.25H11.7014C12.1227 2.2505 12.5265 2.41809 12.8243 2.716C13.1222 3.01392 13.2896 3.41781 13.29 3.83906V6.20813C13.29 6.50649 13.4085 6.79264 13.6195 7.00362C13.8305 7.2146 14.1166 7.33313 14.415 7.33313C14.7134 7.33313 14.9995 7.2146 15.2105 7.00362C15.4215 6.79264 15.54 6.50649 15.54 6.20813V3.83906C15.5388 2.82134 15.134 1.84565 14.4144 1.12597C13.6948 0.406289 12.7191 0.00136448 11.7014 0H3.83859C2.82087 0.00136448 1.84523 0.406289 1.12564 1.12597C0.406046 1.84565 0.00124021 2.82134 0 3.83906V20.1459C0.00124021 21.1637 0.406046 22.1393 1.12564 22.859C1.84523 23.5787 2.82087 23.9836 3.83859 23.985H11.7014C12.7191 23.9836 13.6948 23.5787 14.4144 22.859C15.134 22.1393 15.5388 21.1637 15.54 20.1459V17.4052C15.54 17.1068 15.4215 16.8206 15.2105 16.6097C14.9995 16.3987 14.7134 16.2802 14.415 16.2802Z" fill="white"/>
<path d="M23.6519 11.1739L19.6483 7.17315C19.44 6.96494 19.1584 6.8467 18.8639 6.8438C18.5695 6.84091 18.2856 6.9536 18.0733 7.15768C17.6186 7.59503 17.6294 8.33565 18.0756 8.7819L20.1602 10.8678H10.4102C10.1118 10.8678 9.82564 10.9864 9.61466 11.1973C9.40368 11.4083 9.28516 11.6945 9.28516 11.9928C9.28516 12.2912 9.40368 12.5774 9.61466 12.7883C9.82564 12.9993 10.1118 13.1178 10.4102 13.1178H20.1602L18.0555 15.2225C17.8444 15.4335 17.7259 15.7197 17.7258 16.0181C17.7258 16.3165 17.8443 16.6027 18.0552 16.8137C18.2662 17.0247 18.5524 17.1433 18.8508 17.1434C19.1492 17.1434 19.4354 17.0249 19.6464 16.8139L23.6519 12.8103C23.7595 12.703 23.8448 12.5754 23.9031 12.435C23.9613 12.2946 23.9913 12.1441 23.9913 11.9921C23.9913 11.8401 23.9613 11.6896 23.9031 11.5492C23.8448 11.4088 23.7595 11.2813 23.6519 11.1739Z" fill="white"/>
</svg>
