<svg width="36" height="36" viewBox="0 0 36 36" fill="none" xmlns="http://www.w3.org/2000/svg">
<path fill-rule="evenodd" clip-rule="evenodd" d="M25.7598 3.03575C22.8551 3.8058 19.0073 5.34248 13.7312 7.45294C11.413 8.38021 10.5372 8.74843 9.85828 9.34376C9.67572 9.50385 9.50385 9.67573 9.34376 9.85828C8.74843 10.5372 8.38021 11.413 7.45294 13.7312C5.34248 19.0073 3.8058 22.8551 3.03575 25.7598C2.25468 28.706 2.38125 30.278 3.06914 31.2903C3.46313 31.8701 3.96321 32.3702 4.543 32.7642C5.5553 33.452 7.12729 33.5786 10.0735 32.7975C12.9782 32.0275 16.826 30.4908 22.1021 28.3804C24.4203 27.4531 25.2961 27.0849 25.975 26.4895L26.7396 27.3615L25.975 26.4895C26.1576 26.3294 26.3294 26.1576 26.4895 25.975L27.3711 26.7481L26.4895 25.975C27.0849 25.2961 27.4531 24.4203 28.3804 22.1021C30.4908 16.826 32.0275 12.9782 32.7975 10.0735C33.5786 7.12729 33.452 5.5553 32.7642 4.543C32.3702 3.9632 31.8701 3.46313 31.2903 3.06914C30.278 2.38125 28.706 2.25468 25.7598 3.03575ZM25.1191 0.619232C28.1653 -0.188328 30.7126 -0.345988 32.6954 1.00138C33.5359 1.57251 34.2608 2.29741 34.8319 3.13789C36.1793 5.12066 36.0216 7.66801 35.2141 10.7142C34.4002 13.784 32.8047 17.7729 30.7378 22.9399L30.7015 23.0306C30.6731 23.1017 30.645 23.172 30.6173 23.2414C29.8041 25.2757 29.2816 26.5828 28.3692 27.6233C28.1371 27.888 27.888 28.1371 27.6233 28.3692C26.5828 29.2816 25.2757 29.8041 23.2414 30.6173C23.172 30.645 23.1017 30.6731 23.0306 30.7015L22.9399 30.7378C17.7729 32.8047 13.784 34.4002 10.7142 35.2141C7.66801 36.0216 5.12066 36.1793 3.13789 34.8319C2.29741 34.2608 1.57251 33.5359 1.00138 32.6954L2.03526 31.9928L1.00138 32.6954C-0.345988 30.7126 -0.188328 28.1653 0.619232 25.1191C1.43306 22.0493 3.02863 18.0604 5.09545 12.8934L5.13175 12.8027C5.16019 12.7316 5.18827 12.6613 5.21601 12.5919C6.0292 10.5576 6.55167 9.25047 7.46412 8.20996C7.69618 7.94533 7.94533 7.69618 8.20996 7.46412C9.25047 6.55167 10.5576 6.02919 12.592 5.216C12.6613 5.18826 12.7316 5.16019 12.8027 5.13175L12.8934 5.09545C18.0604 3.02863 22.0493 1.43306 25.1191 0.619232ZM17.9166 14.1666C15.8456 14.1666 14.1666 15.8456 14.1666 17.9166C14.1666 19.9877 15.8456 21.6666 17.9166 21.6666C19.9877 21.6666 21.6666 19.9877 21.6666 17.9166C21.6666 15.8456 19.9877 14.1666 17.9166 14.1666ZM11.6666 17.9166C11.6666 14.4649 14.4649 11.6666 17.9166 11.6666C21.3684 11.6666 24.1666 14.4649 24.1666 17.9166C24.1666 21.3684 21.3684 24.1666 17.9166 24.1666C14.4649 24.1666 11.6666 21.3684 11.6666 17.9166Z" fill="white"/>
</svg>
