<svg width="22" height="24" viewBox="0 0 22 24" fill="none" xmlns="http://www.w3.org/2000/svg">
<path d="M17.9116 0.674297C17.6711 0.258375 17.2232 0 16.7431 0H11.7246V5.93611H20.9549L17.9116 0.674297ZM10.3179 0H5.25209C4.77097 0 4.32317 0.258844 4.08261 0.675703L1.0505 5.93611H10.3178V0H10.3179ZM0.546875 7.34287V22.3461C0.546875 23.2582 1.28919 24 2.20123 24H19.7934C20.7055 24 21.4478 23.2582 21.4478 22.3461V7.34287H0.546875ZM14.1902 13.6522L10.5523 17.2902C10.4149 17.4276 10.2348 17.4965 10.0548 17.4965C9.87472 17.4965 9.69462 17.4276 9.5577 17.2902L7.85225 15.5851C7.57794 15.3108 7.57794 14.8653 7.85225 14.5905C8.12703 14.3158 8.57253 14.3158 8.84731 14.5905L10.0548 15.7985L13.1957 12.6577C13.4705 12.3829 13.916 12.3829 14.1903 12.6577C14.465 12.9324 14.465 13.3775 14.1902 13.6522Z" fill="#AF4B85"/>
</svg>
