<svg width="21" height="24" viewBox="0 0 21 24" fill="none" xmlns="http://www.w3.org/2000/svg">
<path d="M20.8058 6.62362L20.788 6.59292C20.7635 6.54208 20.7352 6.49315 20.7033 6.44653L17.3645 0.674062C17.124 0.258281 16.6762 0 16.1959 0H4.70508C4.224 0 3.77588 0.258891 3.53545 0.675797L0.142172 6.56264C0.112551 6.61451 0.089648 6.66994 0.0740158 6.72759C0.0249676 6.86001 -9.58249e-05 7.0001 2.75309e-07 7.14131V22.3459C2.75309e-07 23.2579 0.741985 23.9999 1.65398 23.9999H19.2464C20.1584 23.9999 20.9003 23.2579 20.9003 22.3459V7.08558C20.9003 7.06519 20.8997 7.04494 20.8987 7.02478C20.9086 6.88478 20.8763 6.74501 20.8058 6.62362ZM11.1776 1.40677H16.1632L18.7897 5.94769H11.1776V1.40677ZM4.73784 1.40677H9.77086V5.94769H2.12034L4.73784 1.40677ZM19.4936 22.346C19.4935 22.4115 19.4674 22.4743 19.4211 22.5207C19.3747 22.567 19.3119 22.5931 19.2464 22.5932H1.65398C1.58844 22.5931 1.5256 22.567 1.47926 22.5207C1.43291 22.4743 1.40684 22.4115 1.40677 22.346V7.35445H19.4936V22.346Z" fill="white"/>
<path d="M13.6415 12.6572C13.3669 12.3825 12.9215 12.3825 12.6468 12.6572L9.50609 15.7979L8.29841 14.5902C8.02377 14.3155 7.57836 14.3155 7.30367 14.5902C7.02898 14.8648 7.02898 15.3102 7.30367 15.5849L9.0088 17.2899C9.07404 17.3554 9.15156 17.4072 9.23691 17.4426C9.32226 17.478 9.41375 17.4961 9.50614 17.496C9.68609 17.496 9.86619 17.4273 10.0035 17.2899L13.6415 13.6519C13.9162 13.3772 13.9162 12.9318 13.6415 12.6572Z" fill="white"/>
</svg>
