<svg width="16" height="20" viewBox="0 0 16 20" fill="none" xmlns="http://www.w3.org/2000/svg">
<path d="M15.848 16.4925L14.9549 5.2382C14.8995 4.51309 14.286 3.94531 13.559 3.94531H11.7947V6.55926C11.7947 6.88297 11.5327 7.145 11.209 7.145C10.8857 7.145 10.6233 6.88297 10.6233 6.55926V3.94531H5.23455V6.55926C5.23455 6.88297 4.97213 7.145 4.64881 7.145C4.3251 7.145 4.06307 6.88297 4.06307 6.55926V3.94531H2.29885C1.57178 3.94531 0.958306 4.51309 0.902876 5.23664L0.00943856 16.494C-0.059663 17.3957 0.25311 18.293 0.867329 18.956C1.48159 19.6191 2.35237 19.9998 3.25635 19.9998H12.6015C13.5055 19.9998 14.3763 19.6191 14.9905 18.956C15.6047 18.293 15.9175 17.3956 15.848 16.4925ZM10.5678 10.7612L7.53842 13.7907C7.42401 13.9051 7.27405 13.9625 7.12412 13.9625C6.97416 13.9625 6.82424 13.9051 6.70983 13.7907L5.29002 12.3709C5.06119 12.142 5.06119 11.7714 5.29002 11.5426C5.51885 11.3138 5.88983 11.3138 6.11826 11.5426L7.12416 12.5481L9.73963 9.93265C9.96807 9.70421 10.339 9.70421 10.5679 9.93265C10.7967 10.1615 10.7967 10.5324 10.5678 10.7612Z" fill="#FBFBFB"/>
<path d="M7.92832 0C5.79664 0 4.0625 1.73453 4.0625 3.86621V3.94547H5.23398V3.86621C5.23398 2.38039 6.44254 1.17145 7.92836 1.17145C9.41418 1.17145 10.6227 2.38039 10.6227 3.86621V3.94547H11.7942V3.86621C11.7941 1.73453 10.06 0 7.92832 0Z" fill="#FBFBFB"/>
</svg>
