<svg width="22" height="22" viewBox="0 0 22 22" fill="none" xmlns="http://www.w3.org/2000/svg">
<path d="M1 5C1 2.79086 2.79086 1 5 1C7.20914 1 9 2.79086 9 5V17C9 19.2091 7.20914 21 5 21C2.79086 21 1 19.2091 1 17V5Z" stroke="white" stroke-width="1.5"/>
<path d="M8.9983 7.24305L12.312 3.92938C13.8741 2.36729 16.4067 2.36729 17.9688 3.92939C19.5309 5.49148 19.5309 8.02414 17.9688 9.58624L8.30469 19.2504" stroke="white" stroke-width="1.5"/>
<path d="M5 21L17 21C19.2091 21 21 19.2091 21 17C21 14.7909 19.2091 13 17 13L14.5 13" stroke="white" stroke-width="1.5"/>
<path d="M6 17C6 17.5523 5.55228 18 5 18C4.44772 18 4 17.5523 4 17C4 16.4477 4.44772 16 5 16C5.55228 16 6 16.4477 6 17Z" stroke="white" stroke-width="1.5"/>
</svg>
