<svg width="42" height="42" viewBox="0 0 42 42" fill="none" xmlns="http://www.w3.org/2000/svg">
<path d="M25.7201 5.15732L27.5739 3.30356C30.6453 0.232148 35.625 0.232148 38.6964 3.30356C41.7678 6.37496 41.7678 11.3547 38.6964 14.4261L36.8427 16.2799M25.7201 5.15732C25.7201 5.15732 25.9519 9.09655 29.4276 12.5724C32.9034 16.0481 36.8427 16.2799 36.8427 16.2799M25.7201 5.15732L8.67765 22.1998C7.52332 23.3541 6.94616 23.9313 6.4498 24.5677C5.86427 25.3184 5.36227 26.1306 4.95268 26.99C4.60547 27.7186 4.34735 28.493 3.83112 30.0416L2.17834 35L1.64362 36.6042M36.8427 16.2799L19.8002 33.3223C18.6459 34.4767 18.0687 35.0538 17.4323 35.5502C16.6816 36.1357 15.8694 36.6377 15.01 37.0473C14.2814 37.3945 13.507 37.6526 11.9584 38.1689L7 39.8217L5.39584 40.3564M5.39584 40.3564L3.79168 40.8911C3.02956 41.1451 2.18932 40.9468 1.62126 40.3787C1.05321 39.8107 0.854856 38.9704 1.1089 38.2083L1.64362 36.6042M5.39584 40.3564L1.64362 36.6042" stroke="#AF4B85" stroke-width="2"/>
</svg>
