<svg width="18" height="18" viewBox="0 0 18 18" fill="none" xmlns="http://www.w3.org/2000/svg">
<path d="M12.5517 2.86437L13.9575 1.45771C14.2506 1.16464 14.648 1 15.0625 1C15.477 1 15.8744 1.16464 16.1675 1.45771C16.4606 1.75077 16.6252 2.14825 16.6252 2.56271C16.6252 2.97716 16.4606 3.37464 16.1675 3.66771L7.31833 12.5169C6.87777 12.9572 6.33447 13.2808 5.7375 13.4585L3.5 14.1252L4.16667 11.8877C4.3444 11.2907 4.66803 10.7474 5.10833 10.3069L12.5517 2.86437ZM12.5517 2.86437L14.75 5.06271M13.5 10.7919V14.7502C13.5 15.2475 13.3025 15.7244 12.9508 16.076C12.5992 16.4277 12.1223 16.6252 11.625 16.6252H2.875C2.37772 16.6252 1.90081 16.4277 1.54917 16.076C1.19754 15.7244 1 15.2475 1 14.7502V6.00021C1 5.50293 1.19754 5.02601 1.54917 4.67438C1.90081 4.32275 2.37772 4.12521 2.875 4.12521H6.83333" stroke="#888888" stroke-width="1.5" stroke-linecap="round" stroke-linejoin="round"/>
</svg>
