<svg width="18" height="18" viewBox="0 0 18 18" fill="none" xmlns="http://www.w3.org/2000/svg">
<path d="M9 0C7.21997 0 5.47991 0.527841 3.99987 1.51677C2.51983 2.50571 1.36628 3.91131 0.685088 5.55585C0.00389959 7.20038 -0.17433 9.00998 0.172936 10.7558C0.520203 12.5016 1.37737 14.1053 2.63604 15.364C3.89471 16.6226 5.49836 17.4798 7.24419 17.8271C8.99001 18.1743 10.7996 17.9961 12.4441 17.3149C14.0887 16.6337 15.4943 15.4802 16.4832 14.0001C17.4721 12.5201 18 10.78 18 9C17.9972 6.61391 17.0481 4.32637 15.3608 2.63915C13.6736 0.95193 11.3861 0.00281493 9 0V0ZM13.0909 9.81818H9.81818V13.0909C9.81818 13.3079 9.73198 13.516 9.57854 13.6694C9.4251 13.8229 9.21699 13.9091 9 13.9091C8.783 13.9091 8.57489 13.8229 8.42146 13.6694C8.26802 13.516 8.18182 13.3079 8.18182 13.0909V9.81818H4.90909C4.6921 9.81818 4.48399 9.73198 4.33055 9.57854C4.17711 9.4251 4.09091 9.21699 4.09091 9C4.09091 8.783 4.17711 8.5749 4.33055 8.42146C4.48399 8.26802 4.6921 8.18182 4.90909 8.18182H8.18182V4.90909C8.18182 4.69209 8.26802 4.48399 8.42146 4.33055C8.57489 4.17711 8.783 4.09091 9 4.09091C9.21699 4.09091 9.4251 4.17711 9.57854 4.33055C9.73198 4.48399 9.81818 4.69209 9.81818 4.90909V8.18182H13.0909C13.3079 8.18182 13.516 8.26802 13.6694 8.42146C13.8229 8.5749 13.9091 8.783 13.9091 9C13.9091 9.21699 13.8229 9.4251 13.6694 9.57854C13.516 9.73198 13.3079 9.81818 13.0909 9.81818Z" fill="white"/>
</svg>
