<svg width="39" height="38" viewBox="0 0 39 38" fill="none" xmlns="http://www.w3.org/2000/svg">
<path d="M1 1L1.52982 1.17661C4.1699 2.05663 5.48994 2.49665 6.24497 3.5442C7 4.59175 7 5.98319 7 8.76607V14C7 19.6569 7 22.4853 8.75736 24.2426C10.5147 26 13.3431 26 19 26H35" stroke="#AF4B85" stroke-width="2" stroke-linecap="round"/>
<path d="M12 31C13.6569 31 15 32.3431 15 34C15 35.6569 13.6569 37 12 37C10.3431 37 9 35.6569 9 34C9 32.3431 10.3431 31 12 31Z" stroke="#AF4B85" stroke-width="2"/>
<path d="M30 31.0001C31.6569 31.0001 33 32.3433 33 34.0001C33 35.657 31.6569 37.0001 30 37.0001C28.3431 37.0001 27 35.657 27 34.0001C27 32.3433 28.3431 31.0001 30 31.0001Z" stroke="#AF4B85" stroke-width="2"/>
<path d="M19 13H13" stroke="#AF4B85" stroke-width="2" stroke-linecap="round"/>
<path d="M7 7H29.9008C34.0107 7 36.0657 7 36.9549 8.34853C37.8441 9.69705 37.0346 11.5859 35.4156 15.3635L34.5585 17.3635C33.8026 19.1272 33.4247 20.009 32.6733 20.5045C31.9219 21 30.9625 21 29.0436 21H7" stroke="#AF4B85" stroke-width="2"/>
</svg>
