<svg width="20" height="18" viewBox="0 0 20 18" fill="none" xmlns="http://www.w3.org/2000/svg">
<path d="M7.95578 8.42001L14.7387 4.50395L11.5485 2.66211L4.76562 6.57817L7.95578 8.42001Z" fill="#FBFBFB"/>
<path d="M7.69531 8.89683L0.898438 4.98047V12.8138L7.69531 16.7302V8.89683Z" fill="#FBFBFB"/>
<path d="M14.4531 12.9062H13.7109V13.6484H14.4531V12.9062Z" fill="#FBFBFB"/>
<path d="M8.24219 8.89683V16.7302L11.9531 14.5843V8.92956C11.9516 8.61839 12.0738 8.31936 12.2928 8.09825C12.5117 7.87715 12.8096 7.75209 13.1207 7.75058H14.0937C14.1492 7.54994 14.2684 7.3728 14.4334 7.24594C14.5985 7.11909 14.8003 7.04941 15.0085 7.04746H15V4.98047L8.24219 8.89683Z" fill="#FBFBFB"/>
<path d="M16.5953 7.59375H15.0063C14.7871 7.59375 14.6094 7.77145 14.6094 7.99066V8.01715C14.6094 8.23636 14.7871 8.41406 15.0063 8.41406H16.5953C16.8145 8.41406 16.9922 8.23636 16.9922 8.01715V7.99066C16.9922 7.77145 16.8145 7.59375 16.5953 7.59375Z" fill="#FBFBFB"/>
<path d="M11.0006 2.35031L7.95473 0.591797L1.17188 4.50789L4.2177 6.26641L11.0006 2.35031Z" fill="#FBFBFB"/>
<path d="M18.4733 8.29688H17.4896C17.431 8.49043 17.3112 8.65976 17.1482 8.77948C16.9852 8.89921 16.7878 8.96287 16.5856 8.96094H15.0085C14.8063 8.96287 14.6089 8.8992 14.4459 8.77948C14.2829 8.65975 14.1631 8.49043 14.1044 8.29688H13.1208C13.0385 8.29754 12.9571 8.31443 12.8814 8.34658C12.8056 8.37872 12.737 8.42549 12.6793 8.4842C12.6217 8.54291 12.5761 8.61242 12.5454 8.68874C12.5146 8.76506 12.4992 8.8467 12.5 8.92898V16.8235C12.4996 16.9049 12.5153 16.9855 12.5464 17.0606C12.5775 17.1358 12.6234 17.2039 12.6812 17.2611C12.739 17.3183 12.8077 17.3634 12.8832 17.3937C12.9587 17.424 13.0394 17.4389 13.1208 17.4375H18.4733C18.555 17.439 18.6363 17.4243 18.7122 17.3941C18.7882 17.364 18.8574 17.319 18.9159 17.2619C18.9743 17.2048 19.0209 17.1366 19.0527 17.0614C19.0846 16.9861 19.1012 16.9052 19.1016 16.8235V8.92898C19.1016 8.76201 19.0355 8.60183 18.9178 8.48341C18.8001 8.36498 18.6403 8.29793 18.4733 8.29688V8.29688ZM13.1641 10.1341C13.1638 10.0982 13.1707 10.0627 13.1842 10.0294C13.1977 9.99621 13.2176 9.96597 13.2429 9.94045C13.2681 9.91493 13.2981 9.89464 13.3311 9.88073C13.3642 9.86681 13.3997 9.85956 13.4355 9.85938H14.7236C14.7966 9.85955 14.8665 9.88849 14.9183 9.93993C14.97 9.99137 14.9994 10.0611 15 10.1341V10.3181C14.9997 10.3907 14.9705 10.4602 14.919 10.5113C14.8674 10.5625 14.7977 10.5911 14.7251 10.5909C14.6676 10.5928 14.611 10.5758 14.564 10.5424C14.517 10.5091 14.4823 10.4612 14.4652 10.4062H13.711V11.1484H13.7218C13.7943 11.1484 13.8638 11.1772 13.9151 11.2285C13.9664 11.2798 13.9952 11.3494 13.9952 11.4219C13.9952 11.4944 13.9664 11.5639 13.9151 11.6152C13.8638 11.6665 13.7943 11.6953 13.7218 11.6953H13.4355C13.3998 11.6953 13.3643 11.6882 13.3313 11.6745C13.2982 11.6607 13.2682 11.6406 13.243 11.6152C13.2178 11.5898 13.1978 11.5597 13.1843 11.5266C13.1707 11.4935 13.1639 11.458 13.1641 11.4222V10.1341ZM13.1641 12.6328C13.1641 12.5603 13.1929 12.4907 13.2442 12.4395C13.2955 12.3882 13.365 12.3594 13.4375 12.3594H14.7266C14.7991 12.3594 14.8687 12.3882 14.9199 12.4395C14.9712 12.4907 15 12.5603 15 12.6328V13.9219C15 13.9944 14.9712 14.0639 14.9199 14.1152C14.8687 14.1665 14.7991 14.1953 14.7266 14.1953H13.4375C13.365 14.1953 13.2955 14.1665 13.2442 14.1152C13.1929 14.0639 13.1641 13.9944 13.1641 13.9219V12.6328ZM13.7218 16.6953H13.4355C13.4003 16.6963 13.3651 16.6903 13.3322 16.6775C13.2993 16.6647 13.2693 16.6454 13.244 16.6208C13.2187 16.5962 13.1986 16.5667 13.1848 16.5342C13.1711 16.5017 13.1641 16.4667 13.1641 16.4314V15.1433C13.1633 15.0699 13.1912 14.9991 13.2419 14.946C13.2927 14.8929 13.3622 14.8618 13.4355 14.8594H14.7236C14.7975 14.8616 14.8676 14.8925 14.9192 14.9455C14.9708 14.9985 14.9998 15.0694 15 15.1433V15.4068C14.9985 15.4787 14.9688 15.5471 14.9174 15.5974C14.866 15.6477 14.7969 15.6758 14.7249 15.6757C14.653 15.6757 14.584 15.6474 14.5327 15.597C14.4813 15.5466 14.4518 15.4782 14.4504 15.4062H13.711V16.1484H13.7218C13.7943 16.1484 13.8639 16.1772 13.9151 16.2285C13.9664 16.2798 13.9952 16.3494 13.9952 16.4219C13.9952 16.4944 13.9664 16.5639 13.9151 16.6152C13.8639 16.6665 13.7943 16.6953 13.7218 16.6953ZM15.7399 15.6305L14.7457 16.6247C14.7203 16.6501 14.6902 16.6703 14.657 16.684C14.6238 16.6978 14.5883 16.7048 14.5523 16.7048C14.5164 16.7048 14.4809 16.6978 14.4477 16.684C14.4145 16.6703 14.3844 16.6501 14.359 16.6247L13.9219 16.1878C13.8965 16.1624 13.8764 16.1322 13.8626 16.0991C13.8489 16.0659 13.8418 16.0303 13.8418 15.9944C13.8418 15.9585 13.8489 15.9229 13.8626 15.8898C13.8764 15.8566 13.8965 15.8264 13.9219 15.8011C13.9473 15.7757 13.9774 15.7555 14.0106 15.7418C14.0438 15.728 14.0794 15.721 14.1153 15.721C14.1512 15.721 14.1867 15.728 14.2199 15.7418C14.2531 15.7555 14.2832 15.7757 14.3086 15.8011L14.5522 16.0447L15.353 15.2439C15.4043 15.1926 15.4738 15.1638 15.5464 15.1638C15.6189 15.1638 15.6884 15.1926 15.7397 15.2439C15.791 15.2952 15.8198 15.3647 15.8198 15.4373C15.8198 15.5098 15.791 15.5793 15.7397 15.6306L15.7399 15.6305ZM15.7399 10.5817L14.7457 11.5759C14.7203 11.6013 14.6902 11.6215 14.657 11.6352C14.6238 11.649 14.5883 11.656 14.5523 11.656C14.5164 11.656 14.4809 11.649 14.4477 11.6352C14.4145 11.6215 14.3844 11.6013 14.359 11.5759L13.9219 11.139C13.8965 11.1136 13.8764 11.0834 13.8626 11.0503C13.8489 11.0171 13.8418 10.9815 13.8418 10.9456C13.8418 10.9097 13.8489 10.8742 13.8626 10.841C13.8764 10.8078 13.8965 10.7777 13.9219 10.7523C13.9473 10.7269 13.9774 10.7067 14.0106 10.693C14.0438 10.6792 14.0794 10.6722 14.1153 10.6722C14.1512 10.6722 14.1867 10.6792 14.2199 10.693C14.2531 10.7067 14.2832 10.7269 14.3086 10.7523L14.5522 10.9959L15.353 10.1951C15.4043 10.1438 15.4738 10.115 15.5464 10.115C15.6189 10.115 15.6884 10.1438 15.7397 10.1951C15.791 10.2464 15.8198 10.316 15.8198 10.3885C15.8198 10.461 15.791 10.5306 15.7397 10.5818L15.7399 10.5817ZM18.1585 16.0703H16.4411C16.3686 16.0703 16.299 16.0415 16.2477 15.9902C16.1965 15.9389 16.1677 15.8694 16.1677 15.7969C16.1677 15.7244 16.1965 15.6548 16.2477 15.6035C16.299 15.5522 16.3686 15.5234 16.4411 15.5234H18.1585C18.231 15.5234 18.3006 15.5522 18.3519 15.6035C18.4032 15.6548 18.432 15.7244 18.432 15.7969C18.432 15.8694 18.4032 15.9389 18.3519 15.9902C18.3006 16.0415 18.231 16.0703 18.1585 16.0703V16.0703ZM18.1585 13.5703H16.4411C16.3686 13.5703 16.299 13.5415 16.2477 13.4902C16.1965 13.4389 16.1677 13.3694 16.1677 13.2969C16.1677 13.2244 16.1965 13.1548 16.2477 13.1035C16.299 13.0522 16.3686 13.0234 16.4411 13.0234H18.1585C18.231 13.0234 18.3006 13.0522 18.3519 13.1035C18.4032 13.1548 18.432 13.2244 18.432 13.2969C18.432 13.3694 18.4032 13.4389 18.3519 13.4902C18.3006 13.5415 18.231 13.5703 18.1585 13.5703V13.5703ZM18.1585 11.0703H16.4411C16.3686 11.0703 16.299 11.0415 16.2477 10.9902C16.1965 10.9389 16.1677 10.8694 16.1677 10.7969C16.1677 10.7244 16.1965 10.6548 16.2477 10.6035C16.299 10.5522 16.3686 10.5234 16.4411 10.5234H18.1585C18.231 10.5234 18.3006 10.5522 18.3519 10.6035C18.4032 10.6548 18.432 10.7244 18.432 10.7969C18.432 10.8694 18.4032 10.9389 18.3519 10.9902C18.3006 11.0415 18.231 11.0703 18.1585 11.0703V11.0703Z" fill="#FBFBFB"/>
</svg>
