<svg width="42" height="42" viewBox="0 0 42 42" fill="none" xmlns="http://www.w3.org/2000/svg">
<path d="M1 9C1 4.58172 4.58172 1 9 1C13.4183 1 17 4.58172 17 9V33C17 37.4183 13.4183 41 9 41C4.58172 41 1 37.4183 1 33V9Z" stroke="#AF4B85" stroke-width="2"/>
<path d="M17.0005 13.4861L23.6278 6.85877C26.752 3.73458 31.8174 3.73458 34.9415 6.85877C38.0657 9.98297 38.0657 15.0483 34.9415 18.1725L15.6133 37.5007" stroke="#AF4B85" stroke-width="2"/>
<path d="M9 41L33 41C37.4183 41 41 37.4183 41 33C41 28.5817 37.4183 25 33 25L28 25" stroke="#AF4B85" stroke-width="2"/>
<path d="M11 33C11 34.1046 10.1046 35 9 35C7.89543 35 7 34.1046 7 33C7 31.8954 7.89543 31 9 31C10.1046 31 11 31.8954 11 33Z" stroke="#AF4B85" stroke-width="2"/>
</svg>
