<svg width="42" height="42" viewBox="0 0 42 42" fill="none" xmlns="http://www.w3.org/2000/svg">
<path d="M5.09074 34.0167C2.36358 31.2895 1 29.9259 1 28.2315C1 26.537 2.36358 25.1735 5.09074 22.4463L22.4463 5.09074C25.1735 2.36358 26.537 1 28.2315 1C29.9259 1 31.2895 2.36358 34.0167 5.09074L36.9093 7.98334C39.6364 10.7105 41 12.0741 41 13.7685C41 15.463 39.6364 16.8265 36.9093 19.5537L19.5537 36.9093C16.8265 39.6364 15.463 41 13.7685 41C12.0741 41 10.7105 39.6364 7.98334 36.9093L5.09074 34.0167Z" stroke="#AF4B85" stroke-width="2"/>
<path d="M13.9297 13.9297L16.7581 16.7581" stroke="#AF4B85" stroke-width="2" stroke-linecap="round"/>
<path d="M22.4141 5.44336L25.2425 8.27179" stroke="#AF4B85" stroke-width="2" stroke-linecap="round"/>
<path d="M5.44531 22.4141L8.27374 25.2425" stroke="#AF4B85" stroke-width="2" stroke-linecap="round"/>
<path d="M9.6875 18.1719L13.9301 22.4145" stroke="#AF4B85" stroke-width="2" stroke-linecap="round"/>
<path d="M18.1719 9.68555L22.4145 13.9282" stroke="#AF4B85" stroke-width="2" stroke-linecap="round"/>
</svg>
