<svg width="20" height="20" viewBox="0 0 20 20" fill="none" xmlns="http://www.w3.org/2000/svg">
<path d="M19.3593 18.2168L14.5993 13.2662C15.8236 11.8136 16.4946 9.97473 16.4937 8.07499C16.4937 3.62251 12.8712 0 8.41874 0C3.96626 0 0.34375 3.62251 0.34375 8.07499C0.34375 12.5275 3.96626 16.15 8.41874 16.15C10.0903 16.15 11.6831 15.6458 13.045 14.6888L17.8412 19.677C18.0417 19.8852 18.3113 20 18.6003 20C18.8738 20 19.1332 19.8957 19.3302 19.7061C19.5312 19.5123 19.6472 19.2467 19.6526 18.9675C19.6581 18.6883 19.5526 18.4184 19.3593 18.2168ZM8.41874 2.10652C11.7098 2.10652 14.3872 4.78391 14.3872 8.07499C14.3872 11.3661 11.7098 14.0435 8.41874 14.0435C5.12766 14.0435 2.45027 11.3661 2.45027 8.07499C2.45027 4.78391 5.12766 2.10652 8.41874 2.10652Z" fill="#AF4B85"/>
</svg>
