<svg width="23" height="24" viewBox="0 0 23 24" fill="none" xmlns="http://www.w3.org/2000/svg">
<path d="M11.4532 17.0001C8.69619 17.0001 6.45312 14.7571 6.45312 12.0001C6.45312 9.24306 8.69619 7 11.4532 7C14.21 7 16.4531 9.24306 16.4531 12.0001C16.4531 14.7571 14.2101 17.0001 11.4532 17.0001ZM11.4532 8.5C9.52311 8.5 7.95312 10.0701 7.95312 12.0001C7.95312 13.93 9.52311 15.5001 11.4532 15.5001C13.3831 15.5001 14.9531 13.93 14.9531 12.0001C14.9531 10.0701 13.3831 8.5 11.4532 8.5Z" fill="white"/>
<path d="M13.1153 24H9.78921C8.98924 24 8.28227 23.432 8.10827 22.6491L7.68733 20.777C7.00122 20.486 6.34717 20.1061 5.73325 19.6421L3.91024 20.2179C3.12817 20.4609 2.27824 20.129 1.88617 19.4289L0.228347 16.5621C-0.168825 15.852 -0.0347625 14.978 0.549347 14.428L1.96216 13.129C1.91932 12.748 1.89827 12.3701 1.89827 12C1.89827 11.6299 1.91936 11.252 1.96127 10.871L0.556284 9.57806C-0.0348094 9.02198 -0.169716 8.148 0.223237 7.44712L1.89133 4.56206C2.27824 3.86995 3.13024 3.54108 3.90728 3.78005L5.73325 4.35698C6.34717 3.89302 7.00122 3.51305 7.68733 3.22191L8.10921 1.34803C8.28227 0.568031 8.98924 0 9.78921 0H13.1153C13.9153 0 14.6223 0.567984 14.7963 1.35094L15.2172 3.22303C15.9033 3.51398 16.5573 3.89391 17.1713 4.35788L18.9942 3.78206C19.7784 3.54108 20.6263 3.87103 21.0183 4.57106L22.6764 7.43794C23.0733 8.148 22.9393 9.02198 22.3552 9.57202L20.9424 10.871C20.9843 11.252 21.0053 11.631 21.0053 12C21.0053 12.369 20.9843 12.748 20.9424 13.129L22.3482 14.421C22.3503 14.423 22.3523 14.425 22.3552 14.4271C22.6391 14.6939 22.8256 15.0482 22.8847 15.4333C22.9438 15.8184 22.8722 16.2123 22.6813 16.552L21.0132 19.437C20.6263 20.129 19.7763 20.46 18.9963 20.2179L17.1702 19.641C16.5562 20.105 15.9022 20.4849 15.2163 20.7761L14.7942 22.65C14.6223 23.432 13.9153 24 13.1153 24ZM5.8863 18.059C6.05824 18.059 6.22727 18.1179 6.3633 18.23C7.0503 18.795 7.79922 19.231 8.59221 19.5231C8.70963 19.5663 8.81434 19.6383 8.89681 19.7324C8.97927 19.8266 9.03684 19.9398 9.06428 20.0619L9.57335 22.322C9.59622 22.426 9.68725 22.5 9.79028 22.5H13.1163C13.2193 22.5 13.3103 22.426 13.3323 22.324L13.8423 20.0619C13.8697 19.9398 13.9273 19.8266 14.0097 19.7324C14.0922 19.6383 14.1969 19.5663 14.3143 19.5231C15.1062 19.231 15.8562 18.795 16.5432 18.23C16.6396 18.1501 16.7544 18.0957 16.8773 18.0718C17.0001 18.0478 17.127 18.0551 17.2463 18.093L19.4473 18.7881C19.5522 18.8211 19.6643 18.782 19.7122 18.696L21.3803 15.811C21.4303 15.722 21.4122 15.6 21.3324 15.522L19.6443 13.97C19.5541 13.8871 19.4856 13.7832 19.4448 13.6676C19.404 13.5521 19.3921 13.4282 19.4103 13.307C19.4762 12.864 19.5093 12.4241 19.5093 11.9991C19.5093 11.5739 19.4762 11.1339 19.4103 10.691C19.3922 10.5698 19.4041 10.4459 19.4449 10.3304C19.4857 10.2148 19.5541 10.111 19.6443 10.028L21.3362 8.47191C21.4122 8.40108 21.4303 8.27691 21.3752 8.178L19.7172 5.31098C19.6633 5.21592 19.5493 5.17805 19.4453 5.211L17.2473 5.90498C17.0052 5.98205 16.7413 5.93006 16.5443 5.76802C15.8573 5.20294 15.1083 4.76695 14.3152 4.47492C14.1978 4.43168 14.0931 4.3597 14.0107 4.26557C13.9282 4.17143 13.8707 4.05814 13.8433 3.93605L13.3343 1.67597C13.3092 1.57397 13.2182 1.5 13.1153 1.5H9.78921C9.68632 1.5 9.59528 1.57397 9.5733 1.67597L9.06321 3.93806C9.03567 4.06009 8.97808 4.17329 8.89567 4.2674C8.81326 4.36151 8.70864 4.43354 8.59132 4.47694C7.79922 4.76897 7.04922 5.20495 6.3633 5.77003C6.16628 5.93208 5.90022 5.98298 5.66036 5.907L3.45925 5.21189C3.35636 5.18002 3.24227 5.21798 3.19432 5.304L1.52622 8.18794C1.47621 8.27803 1.49435 8.40197 1.57732 8.47997L3.26332 10.029C3.35355 10.112 3.42206 10.2158 3.46285 10.3314C3.50365 10.447 3.51548 10.5709 3.49732 10.6921C3.43122 11.135 3.39827 11.575 3.39827 12C3.39827 12.425 3.43122 12.865 3.49732 13.3079C3.53435 13.554 3.44622 13.802 3.26332 13.971L1.57127 15.527C1.49524 15.598 1.47733 15.722 1.53222 15.8211L3.19028 18.6879C3.24316 18.783 3.35725 18.8199 3.46216 18.7881L5.66036 18.0939C5.73433 18.07 5.81036 18.059 5.8863 18.059Z" fill="white"/>
</svg>
