<svg width="24" height="18" viewBox="0 0 24 18" fill="none" xmlns="http://www.w3.org/2000/svg">
<path d="M14.0057 11.6914C13.4086 12.0894 12.7151 12.2999 12 12.2999C11.285 12.2999 10.5914 12.0894 9.99431 11.6914L0.159797 5.13483C0.105506 5.09853 0.0522208 5.06075 0 5.02153L0 15.7651C0 16.9969 0.999609 17.9745 2.20936 17.9745H21.7906C23.0224 17.9745 24 16.9749 24 15.7651V5.02148C23.9476 5.06081 23.8942 5.09867 23.8398 5.13502L14.0057 11.6914Z" fill="white"/>
<path d="M0.939845 3.96525L10.7744 10.5218C11.1466 10.77 11.5733 10.8941 12 10.8941C12.4267 10.8941 12.8534 10.77 13.2256 10.5218L23.0602 3.96525C23.6487 3.57314 24 2.91689 24 2.20861C24 0.99075 23.0092 0 21.7914 0H2.20861C0.990798 4.6875e-05 1.16255e-06 0.990797 1.16255e-06 2.20978C-0.000363928 2.55722 0.085267 2.89935 0.249256 3.20566C0.413246 3.51196 0.650496 3.77292 0.939845 3.96525Z" fill="white"/>
</svg>
