<svg width="21" height="15" viewBox="0 0 21 15" fill="none" xmlns="http://www.w3.org/2000/svg">
<path d="M12.4254 9.74574C11.9278 10.0775 11.3498 10.2528 10.7539 10.2528C10.158 10.2528 9.58008 10.0775 9.0825 9.74574L0.88707 4.28195C0.841828 4.2517 0.797424 4.22022 0.753906 4.18754L0.753906 13.1405C0.753906 14.167 1.58691 14.9817 2.59504 14.9817H18.9127C19.9392 14.9817 20.7539 14.1487 20.7539 13.1405V4.1875C20.7103 4.22027 20.6658 4.25182 20.6204 4.28211L12.4254 9.74574Z" fill="#AF4B85"/>
<path d="M1.53711 3.30438L9.73254 8.7682C10.0428 8.97504 10.3983 9.07844 10.7539 9.07844C11.1095 9.07844 11.465 8.975 11.7753 8.7682L19.9707 3.30438C20.4611 2.97762 20.7539 2.43074 20.7539 1.84051C20.7539 0.825625 19.9282 0 18.9134 0H2.59442C1.57957 3.90625e-05 0.753907 0.825664 0.753907 1.84148C0.753603 2.13102 0.824962 2.41613 0.96162 2.67138C1.09828 2.92663 1.29599 3.1441 1.53711 3.30438Z" fill="#AF4B85"/>
</svg>
