<svg width="18" height="18" viewBox="0 0 18 18" fill="none" xmlns="http://www.w3.org/2000/svg">
<path d="M17.5107 13.2102L14.9988 10.6982C14.1016 9.8011 12.5765 10.16 12.2177 11.3262C11.9485 12.1337 11.0514 12.5822 10.244 12.4028C8.44974 11.9542 6.0275 9.62168 5.57894 7.73771C5.3098 6.93027 5.84808 6.03314 6.65549 5.76404C7.82176 5.40519 8.18061 3.88007 7.28348 2.98295L4.77153 0.470991C4.05383 -0.156997 2.97727 -0.156997 2.34929 0.470991L0.644745 2.17553C-1.0598 3.96978 0.82417 8.72455 5.04066 12.941C9.25716 17.1575 14.0119 19.1313 15.8062 17.337L17.5107 15.6324C18.1387 14.9147 18.1387 13.8382 17.5107 13.2102Z" fill="#AF4B85"/>
</svg>
