<svg width="20" height="20" viewBox="0 0 20 20" fill="none" xmlns="http://www.w3.org/2000/svg">
<path d="M11 1C11 1 13.2 1.2 16 4C18.8 6.8 19 9 19 9" stroke="white" stroke-width="1.5" stroke-linecap="round"/>
<path d="M11.207 4.53516C11.207 4.53516 12.197 4.818 13.6819 6.30292C15.1668 7.78785 15.4497 8.7778 15.4497 8.7778" stroke="white" stroke-width="1.5" stroke-linecap="round"/>
<path d="M7.03759 4.31617L7.6866 5.4791C8.2723 6.52858 8.03718 7.90532 7.11471 8.8278C7.11471 8.8278 7.11471 8.8278 7.11471 8.8278C7.11459 8.82792 5.99588 9.94685 8.02451 11.9755C10.0525 14.0035 11.1714 12.8861 11.1722 12.8853C11.1722 12.8853 11.1722 12.8853 11.1722 12.8853C12.0947 11.9628 13.4714 11.7277 14.5209 12.3134L15.6838 12.9624C17.2686 13.8468 17.4557 16.0692 16.0628 17.4622C15.2258 18.2992 14.2004 18.9505 13.0669 18.9934C11.1588 19.0658 7.91828 18.5829 4.6677 15.3323C1.41713 12.0817 0.934215 8.84122 1.00655 6.93309C1.04952 5.7996 1.7008 4.77423 2.53781 3.93723C3.93076 2.54428 6.15317 2.73144 7.03759 4.31617Z" stroke="white" stroke-width="1.5" stroke-linecap="round"/>
</svg>
