<svg width="18" height="16" viewBox="0 0 18 16" fill="none" xmlns="http://www.w3.org/2000/svg">
<path d="M17.9737 2.2174C17.5093 2.83692 16.9479 3.37733 16.3112 3.81776C16.3112 3.97959 16.3112 4.14142 16.3112 4.31225C16.3163 7.2511 15.1424 10.0691 13.0527 12.1345C10.9629 14.1999 8.13206 15.3399 5.19491 15.2989C3.49685 15.3046 1.82053 14.9169 0.297277 14.1661C0.215137 14.1302 0.162166 14.049 0.162476 13.9593V13.8604C0.162476 13.7313 0.267087 13.6267 0.396127 13.6267C2.06528 13.5716 3.67488 12.9929 4.9972 11.9724C3.48639 11.9419 2.12705 11.0469 1.50146 9.6707C1.46987 9.5956 1.4797 9.5093 1.52743 9.4432C1.57515 9.3771 1.65386 9.3407 1.73511 9.3471C2.19428 9.3932 2.65804 9.3505 3.10106 9.2212C1.43325 8.875 0.180067 7.4904 0.000716559 5.7957C-0.00565344 5.7144 0.0307765 5.6357 0.0968565 5.5879C0.162926 5.5402 0.249097 5.5303 0.324237 5.562C0.771797 5.7595 1.25495 5.8635 1.7441 5.8676C0.282696 4.90846 -0.348534 3.08405 0.207406 1.42622C0.264796 1.26513 0.402666 1.14612 0.570356 1.11294C0.738036 1.07975 0.910817 1.13728 1.02518 1.26439C2.99725 3.36325 5.7069 4.61396 8.58276 4.75279C8.50916 4.45885 8.47296 4.15676 8.47496 3.85372C8.50186 2.26472 9.48506 0.849212 10.9643 0.269872C12.4434 -0.309458 14.1258 0.0620322 15.2239 1.21044C15.9723 1.06785 16.6959 0.816452 17.3716 0.464212C17.4211 0.433312 17.4839 0.433312 17.5334 0.464212C17.5643 0.513732 17.5643 0.576522 17.5334 0.626042C17.2061 1.37552 16.6532 2.00412 15.9518 2.42419C16.566 2.35296 17.1694 2.20807 17.7491 1.99264C17.7979 1.95942 17.862 1.95942 17.9108 1.99264C17.9517 2.01134 17.9823 2.04711 17.9944 2.09042C18.0065 2.13373 17.9989 2.18018 17.9737 2.2174Z" fill="#AF4B85"/>
</svg>
