<svg width="175" height="60" viewBox="0 0 175 60" fill="none" xmlns="http://www.w3.org/2000/svg">
<g clip-path="url(#clip0_333_72)">
<mask id="mask0_333_72" style="mask-type:luminance" maskUnits="userSpaceOnUse" x="0" y="0" width="175" height="60">
<path d="M174.194 0H0V59.6775H174.194V0Z" fill="white"/>
</mask>
<g mask="url(#mask0_333_72)">
<path d="M156.111 4.13926C156.068 3.50926 155.805 2.91487 155.369 2.46076C154.932 2.00664 154.35 1.72195 153.726 1.65682C153.1 1.59169 152.472 1.75031 151.953 2.10472C151.433 2.45914 151.054 2.98663 150.883 3.59427C150.712 4.20191 150.759 4.85073 151.018 5.42643C151.276 6.00214 151.728 6.46781 152.294 6.74141C152.86 7.01501 153.504 7.07898 154.113 6.92208C154.721 6.76518 155.256 6.39745 155.62 5.88369L155.768 5.67572L155.219 5.30945L155.08 5.50811C154.899 5.77142 154.657 5.98609 154.374 6.1333C154.091 6.2805 153.778 6.35572 153.459 6.35238C152.942 6.35363 152.444 6.15363 152.071 5.79428C151.697 5.43493 151.477 4.94415 151.455 4.42482H156.124L156.111 4.13926ZM151.479 3.77919C151.578 3.32624 151.829 2.92109 152.189 2.63174C152.55 2.34237 152.998 2.18639 153.459 2.18995C153.918 2.18556 154.364 2.34167 154.721 2.63159C155.078 2.92151 155.324 3.32718 155.417 3.77919H151.479Z" fill="#96B394"/>
<path d="M159.165 1.41705C159.056 1.85736 159.016 2.3116 159.044 2.76418V2.84178H157.22V2.71762C157.198 2.32743 157.235 1.93625 157.327 1.55674C157.519 0.935944 157.945 0.644172 158.662 0.644172H158.908V0.00475281H158.662C158.219 -0.0264983 157.78 0.0975774 157.419 0.35576C157.058 0.613942 156.798 0.990193 156.683 1.42016C156.577 1.86099 156.538 2.31489 156.565 2.76729V6.94213H157.22V3.48741H159.044V6.94213H159.702V3.48741H161.388V2.84489H159.702V2.72073C159.681 2.33069 159.715 1.93958 159.806 1.55984C159.998 0.939048 160.425 0.647274 161.141 0.647274H161.388V0.00475281H161.141C160.7 -0.0265173 160.261 0.097229 159.901 0.354836C159.54 0.612444 159.28 0.987919 159.165 1.41705Z" fill="#96B394"/>
<path d="M166.737 4.13925C166.696 3.51122 166.436 2.91796 166.002 2.46377C165.569 2.00958 164.99 1.72355 164.367 1.65595C163.745 1.58836 163.118 1.74354 162.599 2.0942C162.079 2.44486 161.699 2.96856 161.525 3.57323C161.35 4.17789 161.395 4.8248 161.648 5.40023C161.902 5.97566 162.349 6.44276 162.911 6.71941C163.474 6.99605 164.115 7.06454 164.723 6.91283C165.331 6.76111 165.866 6.3989 166.234 5.88989L166.379 5.68192L165.811 5.30945L165.672 5.5081C165.49 5.76988 165.247 5.98305 164.965 6.1291C164.682 6.27515 164.369 6.34967 164.051 6.34618C163.535 6.3474 163.037 6.14728 162.664 5.78786C162.291 5.42843 162.071 4.93766 162.05 4.41861H166.737V4.13925ZM162.105 3.77919C162.204 3.33041 162.452 2.92869 162.808 2.63992C163.163 2.35115 163.606 2.19249 164.063 2.18996C164.523 2.18543 164.97 2.34144 165.327 2.63132C165.685 2.92119 165.931 3.32694 166.024 3.77919H162.105Z" fill="#96B394"/>
<path d="M169.57 2.18994C169.88 2.18739 170.186 2.25829 170.464 2.3969C170.74 2.5355 170.981 2.7379 171.166 2.98766L171.309 3.17391L171.855 2.80764L171.698 2.59967C171.452 2.26672 171.13 1.99754 170.761 1.81452C170.391 1.6315 169.983 1.53993 169.57 1.54742C169.216 1.54182 168.864 1.60852 168.536 1.7435C168.207 1.87848 167.91 2.07894 167.66 2.33278C167.411 2.58662 167.216 2.88857 167.086 3.2204C166.957 3.55222 166.896 3.90703 166.905 4.2634C166.9 4.618 166.966 4.97004 167.098 5.29901C167.229 5.62797 167.425 5.92729 167.674 6.17949C167.921 6.4317 168.217 6.63176 168.543 6.76803C168.868 6.90429 169.217 6.97402 169.57 6.97316C169.978 6.97703 170.379 6.88532 170.745 6.70534C171.111 6.52535 171.429 6.26208 171.676 5.93644L171.827 5.73158L171.3 5.35289L171.155 5.54534C170.972 5.79495 170.733 5.99797 170.458 6.13813C170.183 6.27828 169.879 6.35166 169.57 6.35237C169.036 6.3316 168.53 6.10357 168.159 5.71613C167.789 5.32867 167.582 4.81192 167.582 4.27426C167.582 3.73661 167.789 3.21985 168.159 2.8324C168.53 2.44494 169.036 2.21693 169.57 2.19616V2.18994Z" fill="#96B394"/>
<path d="M174.455 2.23341V1.59399H172.769V0.00476074H172.111V4.08959C172.087 4.58013 172.128 5.07175 172.231 5.55155C172.423 6.17235 172.92 6.94214 174.207 6.94214H174.455V6.29962H174.207C173.914 6.32661 173.621 6.25034 173.378 6.08387C173.134 5.91739 172.956 5.67106 172.874 5.38705C172.775 4.95056 172.74 4.50208 172.769 4.05544V2.23341H174.455Z" fill="#96B394"/>
<path d="M54.4643 55.0846H53.8621V56.2642H53.1582V56.8664H53.8621V59.1229H54.4643V56.8664H55.1714V56.2642H54.4643V55.0846Z" fill="#96B394"/>
<path d="M56.5049 56.6366C56.2541 56.9323 56.1258 57.3134 56.1467 57.7013V59.1199H56.7458V57.692C56.7307 57.4603 56.7998 57.2308 56.9403 57.0464C57.0134 56.9728 57.1014 56.9162 57.1985 56.8802C57.2955 56.8443 57.3992 56.8301 57.5023 56.8384H57.635V56.2176H57.5023C57.3158 56.2113 57.1302 56.2454 56.9581 56.3178C56.7859 56.39 56.6314 56.4988 56.5049 56.6366Z" fill="#96B394"/>
<path d="M59.8583 56.2301C59.5133 56.2203 59.1754 56.3298 58.9011 56.5404L58.7992 56.6211L59.1667 57.0961L59.2686 57.0154C59.4414 56.8953 59.6485 56.8354 59.8583 56.8447C60.0609 56.8331 60.2615 56.8887 60.4296 57.0029C60.532 57.0812 60.6075 57.1898 60.6457 57.3134H59.6916C59.5359 57.3134 59.3802 57.3217 59.2253 57.3381C59.0818 57.3527 58.9423 57.3948 58.8147 57.4623C58.6828 57.532 58.5752 57.6402 58.5059 57.7727C58.426 57.9366 58.3888 58.1181 58.3978 58.3004C58.4012 58.3847 58.4157 58.4683 58.4411 58.5487C58.4832 58.6703 58.558 58.7777 58.6572 58.8591C58.7896 58.9633 58.9405 59.0413 59.1018 59.0888C59.5938 59.2089 60.1073 59.2089 60.5993 59.0888C60.7601 59.042 60.9101 58.9639 61.0409 58.8591C61.142 58.7796 61.2173 58.6715 61.257 58.5487C61.285 58.4687 61.3005 58.385 61.3034 58.3004V57.7199C61.321 57.5237 61.2953 57.3259 61.2284 57.1407C61.1616 56.9555 61.0549 56.7873 60.9162 56.648C60.7774 56.5089 60.6099 56.402 60.4254 56.3352C60.2411 56.2683 60.0442 56.243 59.849 56.2611L59.8583 56.2301ZM60.7105 57.8875V58.2694C60.7113 58.2868 60.7077 58.3041 60.7002 58.3198C60.6926 58.3356 60.6813 58.3491 60.6673 58.3594C60.6151 58.4047 60.5541 58.4386 60.4882 58.4587C60.3943 58.4916 60.2969 58.5135 60.198 58.5239C59.9734 58.5518 59.7463 58.5518 59.5217 58.5239C59.4232 58.5129 59.326 58.4921 59.2315 58.4618C59.1653 58.4387 59.1037 58.404 59.0494 58.3594C59.0362 58.3485 59.0258 58.3346 59.0188 58.319C59.0119 58.3035 59.0085 58.2864 59.0092 58.2694C59.0057 58.1909 59.0141 58.1124 59.0339 58.0366C59.0394 58.02 59.0483 58.0049 59.06 57.992C59.0716 57.9793 59.086 57.969 59.1018 57.962C59.1812 57.9286 59.2659 57.9096 59.3519 57.9062C59.4785 57.9062 59.6607 57.8875 59.8583 57.8875H60.7105Z" fill="#96B394"/>
<path d="M63.715 56.2332C63.5358 56.2241 63.3567 56.2549 63.1906 56.3236C63.0246 56.3923 62.8758 56.4972 62.7548 56.6305C62.5175 56.9312 62.3979 57.3087 62.4182 57.692V59.1198H63.0173V57.692C63.0011 57.461 63.0656 57.2317 63.1994 57.0432C63.339 56.9114 63.5235 56.8381 63.715 56.8381C63.9066 56.8381 64.091 56.9114 64.2307 57.0432C64.3646 57.2317 64.4289 57.461 64.4128 57.692V59.1198H65.015V57.692C65.0356 57.3076 64.9135 56.9293 64.6722 56.6305C64.5517 56.4973 64.4034 56.3927 64.2379 56.324C64.0724 56.2553 63.8938 56.2243 63.715 56.2332Z" fill="#96B394"/>
<path d="M67.7967 56.4566C67.5654 56.3106 67.2979 56.2332 67.0247 56.2332C66.7516 56.2332 66.4841 56.3106 66.2529 56.4566C66.1527 56.532 66.0723 56.6307 66.0185 56.7442C65.9647 56.8578 65.9391 56.9828 65.944 57.1085C65.939 57.252 65.9743 57.394 66.046 57.5182C66.1123 57.6207 66.2011 57.7066 66.3053 57.7696C66.4089 57.8304 66.52 57.8773 66.6357 57.9093C66.7469 57.9372 66.8581 57.9651 66.9661 57.9869C67.0742 58.0086 67.2039 58.0427 67.2749 58.0645C67.3323 58.0796 67.3873 58.1026 67.4385 58.1327C67.4756 58.1545 67.4848 58.17 67.4879 58.1793C67.4953 58.2089 67.4953 58.2398 67.4879 58.2694C67.491 58.315 67.4801 58.3603 67.457 58.3997C67.4289 58.4341 67.3943 58.4626 67.3551 58.4835C67.3058 58.5088 67.2525 58.5255 67.1977 58.5332C67.0679 58.5549 66.9354 58.5549 66.8055 58.5332C66.7497 58.5255 66.6954 58.5088 66.645 58.4835C66.6059 58.4652 66.5727 58.4361 66.5493 58.3997C66.5261 58.3603 66.5154 58.315 66.5184 58.2694V58.1389H65.9009V58.2694C65.8964 58.3949 65.9222 58.5197 65.976 58.6332C66.0297 58.7467 66.1098 58.8455 66.2096 58.9212C66.4409 59.0672 66.7085 59.1447 66.9816 59.1447C67.2547 59.1447 67.5222 59.0672 67.7534 58.9212C67.8534 58.8457 67.9337 58.7469 67.9875 58.6333C68.0412 58.5198 68.0669 58.395 68.0622 58.2694C68.0669 58.1279 68.0316 57.988 67.9603 57.8658C67.8958 57.761 67.8068 57.6736 67.701 57.6113C67.5978 57.5503 67.4866 57.5043 67.3706 57.4748L67.0433 57.4002C66.9387 57.3791 66.8355 57.3511 66.7345 57.3164C66.6749 57.2992 66.6178 57.2743 66.5647 57.2419C66.5431 57.2419 66.5277 57.214 66.5246 57.2016C66.5192 57.1708 66.5192 57.1393 66.5246 57.1085C66.5211 57.0628 66.5319 57.0173 66.5555 56.9781C66.5789 56.9424 66.6122 56.9143 66.6512 56.8974C66.7014 56.8717 66.7558 56.8549 66.8117 56.8478C66.9415 56.826 67.074 56.826 67.2039 56.8478C67.2597 56.8553 67.314 56.8722 67.3644 56.8974C67.4031 56.9163 67.437 56.9439 67.4632 56.9781C67.4863 57.0174 67.4971 57.0629 67.4941 57.1085V57.2388H68.09V57.1085C68.0965 56.9841 68.0732 56.8602 68.0222 56.7467C67.9712 56.6333 67.8939 56.5338 67.7967 56.4566Z" fill="#96B394"/>
<path d="M69.6835 56.6522C69.6676 56.5367 69.6785 56.4192 69.7155 56.3087C69.7523 56.1982 69.8142 56.0979 69.8961 56.0155C69.9781 55.9331 70.078 55.8709 70.1879 55.8339C70.2977 55.7967 70.4146 55.7858 70.5295 55.8017H70.6623V55.1964H70.5295C70.3352 55.1793 70.1395 55.2052 69.9562 55.2724C69.7729 55.3396 69.6066 55.4463 69.4688 55.5851C69.331 55.7238 69.2252 55.8914 69.1588 56.0757C69.0923 56.2601 69.067 56.4569 69.0845 56.6522V59.1353H69.6835V57.6144H70.5264L70.7086 57.0123H69.6835V56.6522Z" fill="#96B394"/>
<path d="M72.8701 56.2301C72.5672 56.2575 72.2826 56.388 72.0634 56.5999C71.8442 56.812 71.7034 57.0927 71.6644 57.396C71.6253 57.6992 71.6903 58.0067 71.8485 58.2679C72.0067 58.529 72.2488 58.7281 72.5348 58.8322C72.8208 58.9365 73.1335 58.9395 73.4214 58.8408C73.7094 58.7422 73.9552 58.5478 74.1185 58.2898C74.2817 58.0318 74.3525 57.7255 74.3192 57.4215C74.2859 57.1177 74.1505 56.8342 73.9354 56.618C73.793 56.4847 73.6252 56.3816 73.4422 56.3149C73.2591 56.2484 73.0645 56.2194 72.8701 56.2301ZM72.8701 58.5456C72.703 58.5213 72.5489 58.441 72.4328 58.3176C72.3167 58.1943 72.2453 58.0352 72.2303 57.8661C72.2153 57.697 72.2575 57.5278 72.3501 57.3857C72.4427 57.2438 72.5802 57.1372 72.7404 57.0836C72.9007 57.0299 73.0742 57.0321 73.233 57.0899C73.3919 57.1477 73.5266 57.2576 73.6156 57.402C73.7045 57.5463 73.7424 57.7166 73.7232 57.8853C73.7038 58.054 73.6285 58.2111 73.5093 58.3314C73.4221 58.4077 73.3207 58.4659 73.2111 58.5027C73.1013 58.5394 72.9855 58.554 72.8701 58.5456Z" fill="#96B394"/>
<path d="M75.6738 56.6366C75.4231 56.9323 75.2949 57.3134 75.3157 57.7013V59.1199H75.9147V57.692C75.897 57.46 75.9664 57.2296 76.1092 57.0464C76.1823 56.9728 76.2704 56.9162 76.3674 56.8802C76.4645 56.8443 76.5681 56.8301 76.6712 56.8384H76.804V56.2176H76.6712C76.4847 56.2113 76.2991 56.2454 76.127 56.3178C75.9549 56.39 75.8003 56.4988 75.6738 56.6366Z" fill="#96B394"/>
<path d="M80.6761 56.2332C80.4705 56.2296 80.2677 56.2821 80.0895 56.3852C79.9812 56.4522 79.8859 56.5384 79.8084 56.6398C79.7321 56.5385 79.6379 56.4523 79.5306 56.3852C79.3534 56.282 79.1516 56.2295 78.9469 56.2332C78.7808 56.2258 78.6153 56.2586 78.4643 56.3288C78.3134 56.399 78.1814 56.5046 78.0794 56.6366C77.861 56.9434 77.7522 57.3153 77.7706 57.692V59.1198H78.3696V57.692C78.37 57.5954 78.3772 57.499 78.3912 57.4034C78.4054 57.3053 78.4346 57.21 78.4777 57.1209C78.5176 57.0385 78.577 56.9671 78.6505 56.9129C78.7379 56.8639 78.8362 56.8383 78.9362 56.8383C79.0362 56.8383 79.1345 56.8639 79.2218 56.9129C79.2944 56.966 79.3527 57.0364 79.3916 57.1178C79.4343 57.2082 79.4634 57.3044 79.478 57.4034C79.4905 57.4991 79.4977 57.5955 79.4997 57.692V59.1198H80.0987V57.692C80.1003 57.5954 80.1085 57.4989 80.1234 57.4034C80.1362 57.3049 80.1654 57.2094 80.2098 57.1209C80.2487 57.0377 80.3083 56.9661 80.3828 56.9129C80.4701 56.8639 80.5684 56.8383 80.6684 56.8383C80.7683 56.8383 80.8666 56.8639 80.9539 56.9129C81.0267 56.9672 81.085 57.0386 81.1238 57.1209C81.1693 57.2093 81.1996 57.3047 81.2134 57.4034C81.2258 57.4991 81.233 57.5955 81.235 57.692V59.1198H81.8309V57.692C81.8478 57.3155 81.7392 56.9441 81.5221 56.6366C81.4223 56.5076 81.2937 56.4039 81.1468 56.3338C80.9999 56.2637 80.8387 56.2293 80.6761 56.2332Z" fill="#96B394"/>
<path d="M83.6586 56.2828H83.0596V59.126H83.6586V56.2828Z" fill="#96B394"/>
<path d="M83.6586 55.0846H83.0596V55.8048H83.6586V55.0846Z" fill="#96B394"/>
<path d="M86.1844 56.2332C86.004 56.2234 85.8237 56.2546 85.657 56.3245C85.4902 56.3944 85.3412 56.501 85.221 56.6366C84.9809 56.9359 84.8599 57.3142 84.8813 57.6982V59.1198H85.4804V57.692C85.4643 57.461 85.5288 57.2317 85.6626 57.0433C85.8022 56.9114 85.9866 56.8381 86.1782 56.8381C86.3698 56.8381 86.5542 56.9114 86.6939 57.0433C86.8278 57.2317 86.8921 57.461 86.8761 57.692V59.1198H87.4782V57.692C87.4988 57.3076 87.3767 56.9294 87.1354 56.6304C87.0156 56.4981 86.8683 56.394 86.7039 56.3253C86.5396 56.2567 86.3622 56.2252 86.1844 56.2332Z" fill="#96B394"/>
<path d="M89.8528 56.2301C89.6542 56.217 89.4551 56.2451 89.2678 56.3125C89.0805 56.38 88.9089 56.4852 88.7637 56.622C88.6185 56.7587 88.5028 56.924 88.4236 57.1075C88.3446 57.291 88.3037 57.4889 88.3037 57.6889C88.3037 57.889 88.3446 58.0868 88.4236 58.2703C88.5028 58.4538 88.6185 58.619 88.7637 58.7559C88.9089 58.8926 89.0805 58.9979 89.2678 59.0653C89.4551 59.1327 89.6542 59.1608 89.8528 59.1478C90.1431 59.1574 90.4304 59.0864 90.6834 58.9429C90.6665 59.1046 90.5971 59.2564 90.4858 59.3743C90.3994 59.4499 90.299 59.5075 90.1903 59.5437C90.0816 59.58 89.9669 59.5941 89.8528 59.5854H89.72V60.1907H89.8528C90.0466 60.2013 90.2407 60.1723 90.4233 60.1057C90.6058 60.039 90.773 59.9359 90.915 59.8027C91.0488 59.6608 91.1524 59.4929 91.2192 59.3092C91.2862 59.1256 91.315 58.9302 91.304 58.735V57.6889C91.3215 57.493 91.296 57.2954 91.2293 57.1104C91.1625 56.9255 91.0562 56.7575 90.9178 56.6183C90.7793 56.4792 90.6122 56.3722 90.4282 56.3052C90.2441 56.2381 90.0477 56.2124 89.8528 56.2301ZM90.705 57.6858V57.81C90.7046 57.913 90.6833 58.0149 90.6425 58.1093C90.6015 58.2038 90.5419 58.2888 90.4672 58.3594C90.2917 58.4969 90.0714 58.5634 89.8497 58.5456C89.7146 58.5343 89.584 58.491 89.4689 58.4191C89.3538 58.3472 89.2572 58.2488 89.1874 58.132C89.1175 58.0152 89.0763 57.8834 89.067 57.7475C89.0577 57.6115 89.0807 57.4753 89.1341 57.35C89.1876 57.2248 89.2698 57.1141 89.3741 57.0271C89.4785 56.9401 89.6018 56.8792 89.7341 56.8495C89.8664 56.8199 90.0038 56.8223 90.1351 56.8565C90.2663 56.8907 90.3876 56.9558 90.4888 57.0463C90.6438 57.2218 90.7236 57.4515 90.7112 57.6858H90.705Z" fill="#96B394"/>
<path d="M95.8699 56.6522C95.8533 56.5366 95.8638 56.4188 95.9005 56.3081C95.9371 56.1973 95.999 56.0966 96.0811 56.0141C96.1632 55.9315 96.2634 55.8693 96.3736 55.8324C96.4837 55.7956 96.601 55.7851 96.7159 55.8016H96.8484V55.1964H96.7159C96.5215 55.1794 96.3257 55.2053 96.1423 55.2724C95.9589 55.3396 95.7923 55.4462 95.6543 55.585C95.5163 55.7237 95.4102 55.8912 95.3433 56.0755C95.2766 56.2599 95.2508 56.4567 95.2677 56.6522V59.1353H95.8699V57.6144H96.7128L96.8919 57.0122H95.8699V56.6522Z" fill="#96B394"/>
<path d="M99.5477 57.6889C99.5477 57.7866 99.54 57.884 99.5265 57.9807C99.5119 58.0782 99.4819 58.1725 99.4365 58.26C99.3919 58.3432 99.329 58.4145 99.2516 58.468C99.1558 58.5175 99.0503 58.5434 98.9429 58.5434C98.8355 58.5434 98.729 58.5175 98.6342 58.468C98.5548 58.4172 98.491 58.3465 98.4484 58.2632C98.4039 58.1756 98.3729 58.0813 98.3594 57.9838C98.3448 57.8872 98.3371 57.7897 98.3371 57.692V56.2859H97.7255V57.692C97.7032 58.0711 97.8126 58.4464 98.0352 58.7535C98.1484 58.8786 98.2877 58.9785 98.4416 59.0468C98.5965 59.1151 98.7629 59.1503 98.9313 59.1503C99.1006 59.1503 99.2671 59.1151 99.4219 59.0468C99.5758 58.9785 99.7152 58.8786 99.8284 58.7535C100.052 58.447 100.161 58.0713 100.137 57.692V56.2859H99.5197L99.5477 57.6889Z" fill="#96B394"/>
<path d="M101.526 56.6367C101.276 56.9323 101.147 57.3134 101.168 57.7013V59.1198H101.767V57.692C101.75 57.46 101.819 57.2296 101.962 57.0464C102.034 56.9729 102.122 56.9162 102.22 56.8803C102.317 56.8444 102.421 56.8301 102.524 56.8385H102.657V56.2177H102.512C102.327 56.213 102.144 56.2481 101.973 56.3203C101.804 56.3925 101.651 56.5004 101.526 56.6367Z" fill="#96B394"/>
<path d="M104.93 56.2332C104.751 56.2238 104.572 56.2546 104.406 56.3233C104.24 56.3921 104.091 56.497 103.97 56.6304C103.731 56.9302 103.611 57.3085 103.633 57.692V59.1198H104.233V57.692C104.217 57.461 104.281 57.2317 104.414 57.0432C104.555 56.9114 104.739 56.8381 104.93 56.8381C105.122 56.8381 105.307 56.9114 105.446 57.0432C105.58 57.2317 105.644 57.461 105.628 57.692V59.1198H106.218V57.692C106.24 57.308 106.119 56.9297 105.879 56.6304C105.759 56.4986 105.613 56.3947 105.448 56.326C105.284 56.2573 105.107 56.2257 104.93 56.2332Z" fill="#96B394"/>
<path d="M108.048 56.2828H107.449V59.126H108.048V56.2828Z" fill="#96B394"/>
<path d="M108.048 55.0846H107.449V55.8048H108.048V55.0846Z" fill="#96B394"/>
<path d="M110.392 55.0846H109.79V56.2642H109.09V56.8664H109.79V59.1229H110.392V56.8664H111.1V56.2642H110.392V55.0846Z" fill="#96B394"/>
<path d="M113.819 57.6889C113.819 57.7866 113.813 57.884 113.798 57.9807C113.784 58.0782 113.754 58.1725 113.708 58.26C113.664 58.3432 113.601 58.4145 113.523 58.468C113.427 58.5175 113.322 58.5434 113.214 58.5434C113.107 58.5434 113.001 58.5175 112.906 58.468C112.827 58.4172 112.764 58.3465 112.72 58.2632C112.675 58.1756 112.645 58.0813 112.631 57.9838C112.616 57.8872 112.61 57.7897 112.609 57.692V56.2859H112.007V57.692C111.984 58.0711 112.094 58.4464 112.315 58.7535C112.43 58.8786 112.568 58.9785 112.723 59.0468C112.877 59.1151 113.044 59.1503 113.213 59.1503C113.382 59.1503 113.548 59.1151 113.703 59.0468C113.857 58.9785 113.995 58.8786 114.11 58.7535C114.333 58.447 114.443 58.0713 114.418 57.692V56.2859H113.816L113.819 57.6889Z" fill="#96B394"/>
<path d="M115.79 56.6366C115.539 56.9323 115.411 57.3134 115.432 57.7013V59.1199H116.031V57.692C116.013 57.46 116.082 57.2296 116.226 57.0464C116.298 56.9728 116.386 56.9162 116.483 56.8802C116.581 56.8443 116.684 56.8301 116.787 56.8384H116.916V56.2176H116.787C116.601 56.2113 116.415 56.2454 116.243 56.3178C116.071 56.39 115.916 56.4988 115.79 56.6366Z" fill="#96B394"/>
<path d="M120.238 56.618C120.034 56.3972 119.768 56.2448 119.476 56.1816C119.183 56.1184 118.878 56.1475 118.603 56.2649C118.327 56.3824 118.094 56.5825 117.936 56.8379C117.777 57.0933 117.702 57.3915 117.718 57.692C117.701 57.8875 117.727 58.0844 117.794 58.2687C117.86 58.4531 117.967 58.6205 118.104 58.7593C118.243 58.8979 118.409 59.0047 118.593 59.0717C118.776 59.1389 118.971 59.1648 119.166 59.1478C119.357 59.1571 119.546 59.1287 119.725 59.0644C119.904 58.9999 120.069 58.9006 120.21 58.7722L120.306 58.679L119.886 58.2476L119.793 58.3407C119.621 58.4864 119.4 58.5597 119.176 58.5456C118.963 58.5595 118.751 58.4968 118.579 58.3687C118.469 58.2717 118.393 58.1409 118.364 57.9962H120.33C120.408 57.9951 120.484 57.9641 120.54 57.9093C120.569 57.8805 120.592 57.8463 120.609 57.8085C120.624 57.7706 120.633 57.73 120.633 57.6889C120.642 57.4929 120.612 57.2971 120.544 57.113C120.476 56.9291 120.372 56.7608 120.238 56.618ZM118.351 57.391C118.38 57.2443 118.456 57.1112 118.567 57.0123C118.741 56.8836 118.954 56.8199 119.17 56.8322C119.385 56.8199 119.597 56.8836 119.772 57.0123C119.885 57.1105 119.963 57.2436 119.993 57.391H118.351Z" fill="#96B394"/>
<path d="M56.9441 8.50652L41.2832 45.1923L29.9791 18.7682H26.0361L34.4038 38.4629H34.376L39.5726 50.6553C39.7056 51.0016 39.9407 51.2987 40.2465 51.5068C40.5523 51.7149 40.914 51.8239 41.2832 51.8193C41.6632 51.8382 42.0387 51.7304 42.3514 51.5125C42.6641 51.2948 42.8964 50.9792 43.0124 50.6149L61.0229 8.50652H56.9441Z" fill="#AF4B85"/>
<path d="M19.6594 45.1892L4.32279 9.11801L4.06342 8.49722H0L17.9457 50.6833C18.0779 51.0301 18.3129 51.3277 18.6188 51.5358C18.9248 51.7441 19.2869 51.8528 19.6564 51.8473C20.0149 51.8471 20.3667 51.748 20.6732 51.5608C20.9797 51.3736 21.2293 51.1055 21.3947 50.7856L21.4256 50.7267L29.7069 31.3021L29.7377 31.2338L27.6844 26.4723L19.6594 45.1892Z" fill="#AF4B85"/>
<path d="M169.849 8.32962L154.302 44.7454L143.112 18.6038H138.79L147.194 38.3885H147.167L152.416 50.7391C152.561 51.1181 152.817 51.4432 153.152 51.6707C153.487 51.8983 153.883 52.0173 154.286 52.0118C154.701 52.0294 155.11 51.9107 155.451 51.6737C155.791 51.4368 156.047 51.0946 156.176 50.6987L174.307 8.32962H169.849Z" fill="#AF4B85"/>
<path d="M132.679 45.1892L117.355 9.11801L117.096 8.49722H113.01L130.956 50.674C131.088 51.0207 131.323 51.3184 131.629 51.5266C131.935 51.7347 132.297 51.8434 132.667 51.838C133.025 51.8377 133.377 51.7387 133.684 51.5515C133.989 51.3643 134.239 51.0962 134.405 50.7764L134.436 50.7174L142.599 31.569L142.63 31.4976L140.577 26.7392L132.679 45.1892Z" fill="#AF4B85"/>
<path d="M106.383 13.0694C104.806 9.32904 102.189 6.12513 98.8474 3.84132C95.5048 1.5575 91.5785 0.290601 87.5383 0.192341C83.4982 0.0940814 79.5156 1.16863 76.0673 3.28728C72.619 5.40595 69.8514 8.47891 68.0958 12.1382L67.7871 12.8055L70.3992 13.147L70.5722 12.8055C71.7038 10.5927 73.2658 8.63088 75.1657 7.03625C77.0655 5.44161 79.2645 4.24667 81.6323 3.52223C84.0001 2.79781 86.4884 2.55864 88.9499 2.81893C91.4113 3.07922 93.7958 3.83365 95.9618 5.0375C98.1274 6.24136 100.031 7.87013 101.56 9.82724C103.088 11.7844 104.21 14.03 104.858 16.4311C105.507 18.8322 105.67 21.3397 105.337 23.8051C105.003 26.2705 104.182 28.6436 102.919 30.7837L102.746 31.0755L104.29 33.3817L104.731 32.6927C105.04 32.224 105.315 31.7397 105.571 31.2555C107.046 28.4769 107.886 25.4025 108.028 22.2564C108.172 19.1103 107.615 15.9717 106.399 13.0694H106.383Z" fill="#AF4B85"/>
<path d="M76.7573 41.7749C76.3188 41.5575 75.8876 41.3248 75.4636 41.0765L70.832 51.8907H72.4252L76.7573 41.7749Z" fill="#96B394"/>
<path d="M96.5376 51.8907H98.1282L94.3144 42.9606C93.8512 43.1189 93.3881 43.271 92.9033 43.3889L96.5376 51.8907Z" fill="#96B394"/>
<path d="M97.4575 36.5384L97.2727 36.6626C94.5021 38.5303 91.2789 39.6059 87.9473 39.7746C84.6159 39.9433 81.3013 39.1987 78.3582 37.6204C75.4151 36.0421 72.954 33.6894 71.238 30.814C69.5219 27.9384 68.6155 24.6482 68.6155 21.2949C68.6155 21.0714 68.6155 20.851 68.6155 20.6275V20.4257L65.9446 20.0626V20.3078C65.9292 20.6368 65.92 20.9658 65.92 21.2949C65.9149 24.0793 66.458 26.8372 67.5179 29.4097C68.5778 31.9822 70.1334 34.3184 72.0954 36.2839C74.0357 38.2532 76.353 39.8068 78.9072 40.8508C81.4615 41.8948 84.1996 42.4077 86.9565 42.3584C88.7559 42.3586 90.5482 42.1334 92.2921 41.6879C92.7675 41.5637 93.2493 41.421 93.7216 41.2658C95.4833 40.677 97.1614 39.8611 98.7146 38.8385L98.9033 38.7143L97.4575 36.5384Z" fill="#96B394"/>
<path d="M94.363 31.7459L94.1037 31.9228C92.1931 33.2078 89.9722 33.9486 87.6765 34.0667C85.3809 34.1846 83.0963 33.6755 81.0654 32.5933C79.0344 31.511 77.3329 29.8961 76.1416 27.9198C74.9503 25.9437 74.3135 23.6801 74.2991 21.3694V21.0962L69.5625 20.4506V20.8013C69.5625 20.9628 69.5625 21.1117 69.5625 21.2856C69.5639 24.4692 70.4255 27.5926 72.0554 30.3221C73.6854 33.0517 76.0224 35.2847 78.8167 36.7829C81.6111 38.281 84.7579 38.9877 87.9208 38.8277C91.0836 38.6677 94.1439 37.6468 96.7746 35.8742L97.0311 35.7004L94.363 31.7459Z" fill="#96B394"/>
</g>
</g>
<defs>
<clipPath id="clip0_333_72">
<rect width="174.194" height="60" fill="white"/>
</clipPath>
</defs>
</svg>
